<?xml version="1.0" encoding="UTF-8"?>
<svg width="169px" height="52px" viewBox="0 0 169 52" version="1.1" xmlns="http://www.w3.org/2000/svg" xmlns:xlink="http://www.w3.org/1999/xlink">
    <!-- Generator: Sketch 41.2 (35397) - http://www.bohemiancoding.com/sketch -->
    <title>Group</title>
    <desc>Created with Sketch.</desc>
    <defs></defs>
    <g id="Page-1" stroke="none" stroke-width="1" fill="none" fill-rule="evenodd">
        <g id="Group" fill="#FFFFFF">
            <path d="M112.24503,17.8996994 L112.236481,17.9239263 C111.910401,18.8085217 111.423724,19.5955879 110.781945,20.2776705 L110.782555,20.2764281 C110.143219,20.9485714 109.334125,21.5101404 108.371762,21.9338019 L108.369319,21.9338019 C107.426496,22.356221 106.311474,22.5730214 105.053562,22.5730214 C103.994718,22.5730214 103.117844,22.4375988 102.459578,22.1884958 L102.453471,22.186011 L102.457135,22.1884958 C101.782992,21.9387715 101.240747,21.61823 100.848718,21.2510981 L100.846886,21.2498556 C100.46646,20.8939054 100.214877,20.5118646 100.054891,20.054658 L100.054891,20.0559004 C99.8833017,19.5558308 99.7972019,19.0489278 99.7972019,18.5488581 C99.7959807,17.5443703 99.9535249,16.7479861 100.231365,16.1839323 C100.516532,15.6260906 100.88841,15.1906262 101.348219,14.8837511 C101.846499,14.5495431 102.430267,14.3122429 103.090365,14.184896 C103.858546,14.0364281 104.641382,13.9345505 105.415059,13.8823693 C106.179576,13.8289457 107.005768,13.7867038 107.952254,13.7550224 C108.85905,13.7270682 109.724322,13.6556297 110.521813,13.5332524 C111.336403,13.4102539 112.075273,13.2282409 112.726822,12.9952892 L112.728654,12.9952892 L112.731707,12.994668 C112.73415,12.9934256 112.735371,12.9934256 112.737814,12.9909408 L112.737814,15.1396874 C112.737814,16.0895092 112.569889,17.0250433 112.236481,17.9226839 L112.24503,17.8996994 Z M113.250138,6.37697561 L113.264183,6.46580786 L113.250138,6.37697561 Z M114.89275,4.36551518 L114.870157,4.31954604 L114.89214,4.36427277 C114.43172,3.42998109 113.809481,2.65347536 113.044353,2.06270981 L113.045575,2.06270981 C112.287775,1.47691389 111.399298,1.06257043 110.411899,0.833345943 C109.484342,0.619030363 108.500606,0.508455948 107.484507,0.508455948 C106.031802,0.508455948 104.736031,0.713453459 103.630168,1.12717571 L103.629558,1.12717571 C102.521252,1.54089796 101.557667,2.1291787 100.771167,2.87897262 C99.9858887,3.62503932 99.3740307,4.53261921 98.9557446,5.56071279 L98.9557446,5.5619552 C98.5508925,6.55650373 98.3133549,7.64236934 98.25107,8.77917372 L98.1918382,9.88243305 L101.075875,9.88243305 L101.144877,8.87297561 L101.141824,8.90776307 C101.259677,7.12801195 101.849552,5.79490692 102.88336,4.87241812 C103.922052,3.9468233 105.453529,3.44923843 107.484507,3.44923843 C108.77295,3.44923843 109.7805,3.62441812 110.453422,3.93253559 C111.139167,4.2462439 111.639278,4.63449676 111.95742,5.07058238 C112.292049,5.53897063 112.49417,6.02537382 112.581491,6.57513987 L112.595535,6.66210851 L112.581491,6.57513987 C112.68652,7.24914684 112.737814,7.8815331 112.737814,8.4517989 C112.740256,9.08294276 112.61935,9.50722549 112.45631,9.72713191 L112.4557,9.72837432 C112.291438,9.95759881 111.972075,10.1743992 111.473185,10.3297003 L111.473185,10.3309428 C110.878425,10.5154405 110.071164,10.6477571 109.094145,10.71112 L109.091702,10.71112 C108.03469,10.7825585 106.765787,10.8602091 105.290489,10.9465565 L105.288657,10.9465565 C104.342781,11.0068133 103.393241,11.1354027 102.463242,11.3261125 L102.46202,11.3261125 C101.446532,11.5398069 100.520806,11.9181205 99.7159873,12.4591896 C98.8702555,13.028213 98.1832893,13.814658 97.6789034,14.7806312 C97.1592516,15.7677252 96.9101119,17.0368462 96.9095012,18.5488581 C96.9095012,19.6819353 97.104905,20.6988472 97.504872,21.5809577 C97.904839,22.4643106 98.508148,23.2091349 99.2989224,23.7974156 L99.3129671,23.8098397 L99.2983118,23.7974156 C100.796203,24.9186899 102.772224,25.4696984 105.136609,25.4696984 C106.346891,25.4696984 107.491834,25.3057003 108.538466,24.9758407 C109.573495,24.6515719 110.517539,24.2018198 111.34312,23.6334176 L111.349837,23.6290692 C111.865825,23.2706341 112.326245,22.8718208 112.737814,22.4469169 L112.737814,25.1354903 L115.629178,25.1354903 L115.629178,7.81009457 L115.629178,7.80512494 C115.594983,6.46332305 115.355002,5.30726132 114.89275,4.36551518 L114.89275,4.36551518 Z" id="Fill-1"></path>
            <polygon id="Fill-4" points="38.9137973 1.21327466 38.9137973 25.135863 41.8076043 25.135863 41.8076043 0.861672872 38.9137973 0.861672872"></polygon>
            <path d="M61.7595461,15.2620026 C61.2716474,14.4805272 60.6292577,13.8263988 59.8525279,13.3232231 C59.1173214,12.8436532 58.2825811,12.4678244 57.3666261,12.1969792 L57.3739537,12.199464 L57.3654048,12.1957368 C56.5324964,11.9547094 55.699588,11.7180305 54.8544669,11.4900484 L54.8569095,11.4900484 L54.8532457,11.4900484 C53.7144083,11.1862793 52.7129642,10.9247522 51.8531878,10.6986337 L51.7683093,10.6756492 L51.767088,10.6756492 C50.9347903,10.4607124 50.1586711,10.2072609 49.456439,9.91529477 C48.8891575,9.66867656 48.4696502,9.34378656 48.1460127,8.90894335 C47.8742794,8.5486447 47.7020799,7.92868253 47.7039118,7.04532962 C47.7020799,7.043466 47.7100182,6.83598367 47.848022,6.20608223 L47.8492433,6.20483982 C47.9158027,5.88181344 48.1099852,5.4960454 48.4385077,5.08108074 C48.7383303,4.70525197 49.2640884,4.31824151 49.999295,3.96850333 C50.6972526,3.63491648 51.7542647,3.44669149 53.1239227,3.44917631 C54.0649137,3.44917631 54.9301859,3.55229627 55.6916498,3.75294535 L55.6940923,3.75543016 L55.6910391,3.75294535 C56.4085372,3.94676117 57.0191738,4.24990901 57.5076832,4.64810114 L57.5082938,4.64810114 C57.9900861,5.04132364 58.3680702,5.54263574 58.6343078,6.15017382 L58.6196525,6.11849238 L58.6343078,6.14893141 C58.901156,6.76516635 59.0477088,7.5721111 59.0470981,8.53932663 L59.0470981,9.58046551 L61.9360201,9.58046551 L61.9360201,8.53932663 C61.9360201,7.17329776 61.7332887,5.96940329 61.3180558,4.93696127 C60.9052655,3.90451926 60.2787523,3.04663574 59.448897,2.38878009 C57.8600205,1.128356 55.7209603,0.508393828 53.1239227,0.508393828 C51.6834308,0.508393828 50.4249087,0.699103634 49.3813307,1.08114445 L49.3813307,1.08114445 C48.3487441,1.46442768 47.4743124,1.97630025 46.7849036,2.60992892 L46.7812398,2.61117133 C46.0838928,3.25660289 45.5679048,3.9902455 45.2607546,4.79222061 L45.2741886,4.76240279 L45.2619759,4.7915994 C44.9664277,5.56065067 44.8149898,6.31665665 44.8149898,7.04532962 C44.8149898,8.40452524 45.0647402,9.54754166 45.5862239,10.4364854 L45.5904984,10.4426975 L45.5874452,10.4377278 C46.1241948,11.3409593 46.9522181,12.0429205 48.0220535,12.5162783 C48.6693283,12.815699 49.4198008,13.0902714 50.2466028,13.3294351 L50.2380539,13.3269503 L50.2453815,13.3294351 C51.0422623,13.5623869 51.9710407,13.8096263 53.009123,14.066805 C53.9275205,14.2935446 54.8355372,14.5221479 55.7240135,14.7451604 C56.5263901,14.9489155 57.239003,15.2241091 57.8392589,15.5601808 L57.8398695,15.5614232 C58.3937169,15.8745103 58.8461987,16.2702176 59.1869339,16.7410907 L59.1863233,16.7398483 C59.4727119,17.1355556 59.6357519,17.704579 59.6357519,18.4599638 C59.6351412,19.1942276 59.4690481,19.7924476 59.158234,20.2658055 L59.1570127,20.2670479 C58.8077286,20.7894809 58.3644064,21.2205969 57.828878,21.5492141 C57.2640391,21.8952251 56.6161536,22.1586158 55.8949918,22.3195078 C55.1512363,22.4872331 54.4141979,22.5698533 53.7101339,22.5698533 C51.3945997,22.5710957 49.6603916,22.0530111 48.5288819,21.0907652 L48.5551393,21.1125073 L48.5288819,21.0907652 C47.9860259,20.6273465 47.5750675,20.0179448 47.293564,19.250136 C47.0120605,18.4810847 46.864897,17.5505203 46.864897,16.4621698 L46.864897,15.4173037 L43.977807,15.4173037 L43.977807,16.4621698 C43.977807,17.9698333 44.1872554,19.3023172 44.6122585,20.4490608 C45.0360403,21.5951833 45.67843,22.5549444 46.5333214,23.2991474 L46.5223299,23.2892082 L46.5327107,23.2991474 C48.2021913,24.758357 50.6288613,25.465909 53.7101339,25.465909 C54.7018078,25.465909 55.7160752,25.3491225 56.7193512,25.1211405 C57.7647612,24.8844615 58.7197969,24.4868906 59.5612542,23.9371245 L59.5679712,23.9321549 L59.5594223,23.9383669 C60.4289689,23.3743132 61.1440244,22.6288677 61.6813846,21.7337119 L61.6594017,21.7691206 L61.6813846,21.7337119 C62.2462235,20.7969354 62.5234526,19.6588886 62.5222313,18.3742375 C62.5222313,17.1523281 62.2730915,16.1018712 61.7619887,15.2669722 L61.7595461,15.2620026 Z" id="Fill-6"></path>
            <path d="M80.9057528,7.64444507 L80.912187,7.62435441 L80.9057528,7.64444507 Z" id="Fill-8"></path>
            <path d="M94.3800611,6.42791439 C94.1248149,5.31036735 93.6802715,4.32637929 93.0598646,3.50887407 L93.0671923,3.51881334 L93.059254,3.50887407 C92.4235812,2.67770234 91.5827346,2.02233151 90.5745735,1.55642807 L90.5733522,1.55642807 C89.5609167,1.09176705 88.3213243,0.865027377 86.8814431,0.863784968 C84.9988503,0.863784968 83.3122719,1.40733897 81.9071969,2.48140169 C81.1762649,3.038001 80.569292,3.7026899 80.082004,4.45621105 C79.635018,3.65796317 79.065294,2.96407765 78.3703895,2.39629667 C77.1216375,1.37441513 75.5675673,0.858815331 73.8003848,0.861300149 C73.6990191,0.861300149 73.5958215,0.862542558 73.4901814,0.866269786 L73.4883495,0.866269786 C71.5385867,0.866269786 69.7048448,1.43156595 68.3303017,2.47767446 C66.894695,3.56975212 66.1387268,4.78979791 65.5574007,5.90237531 L65.5506837,5.9147994 L65.5482412,5.92473868 C65.1904081,6.73354704 65.0927062,7.18889 64.9656938,7.79642807 L64.9656938,7.79518566 C64.8185304,8.48596516 64.6902967,9.17860826 64.6927392,10.2644739 L64.6927392,25.1354903 L67.5859357,25.1354903 L67.5859357,10.4365475 C67.5859357,9.53517969 67.7227183,8.66673569 67.9926197,7.85730612 L67.993841,7.84860926 C68.2551934,7.05533101 68.6423371,6.3490214 69.1467229,5.73899851 L69.1485549,5.73527128 C69.6388961,5.1407785 70.2397625,4.66742061 70.9426053,4.32078845 C71.6320141,3.98098955 72.4233992,3.80580986 73.3057691,3.80580986 C73.8614485,3.80580986 74.393313,3.85364261 74.8549543,3.93812643 C75.315985,4.02447387 75.7080137,4.14809358 75.9724194,4.28910702 L75.9669236,4.2866222 L75.97303,4.29034943 C76.5671795,4.60095172 77.0196612,5.01840119 77.3384135,5.534001 C77.6809807,6.09805475 77.9252354,6.77516775 78.055301,7.54297661 C78.1969687,8.3828452 78.2714663,9.29974316 78.2714663,10.2669587 L78.2714663,25.1354903 L81.1622202,25.1354903 L81.1622202,10.4390324 C81.1622202,9.53393728 81.3008347,8.66176605 81.5689042,7.84860926 L81.567683,7.84985167 C81.8339205,7.05533101 82.2210642,6.34529418 82.7248394,5.73899851 L82.7425479,5.71601394 L82.7248394,5.7377561 C83.2115168,5.14699054 83.8148258,4.67239024 84.5207218,4.32389447 C85.2119625,3.98347437 86.0039582,3.80705226 86.8814431,3.80705226 C87.9189147,3.80580986 88.7646465,3.95800498 89.383832,4.2319562 C89.9895836,4.50466501 90.4677121,4.87987257 90.8163856,5.35198805 L90.7913495,5.31906421 L90.8176069,5.35323046 C91.180325,5.84336088 91.4441201,6.46208064 91.595558,7.19510204 L91.5961686,7.19696565 C91.7622618,7.99086511 91.8471403,8.91024788 91.8471403,9.92467496 L91.8471403,25.1354903 L94.7391154,25.1354903 L94.7391154,9.92467496 C94.7391154,8.67108412 94.6206519,7.49576506 94.3800611,6.4303992 L94.3800611,6.42791439 Z" id="Path"></path>
            <path d="M30.3403977,2.47512753 L30.3410083,2.47388512 C28.904791,3.56596277 28.1476015,4.78662977 27.5693286,5.89547994 L27.5638329,5.90604042 L27.5595584,5.9172221 C27.1962296,6.73969696 27.0979171,7.19503992 26.9709047,7.79760836 L26.9709047,7.79885077 C26.8274051,8.4809334 26.7016139,9.16860687 26.7022246,10.2594421 L26.7022246,25.1360494 L29.5948104,25.1360494 L29.5948104,10.4308946 C29.5948104,9.52704191 29.7328142,8.65921911 30.002105,7.84419871 L29.9825646,7.90445555 L30.002105,7.8429563 C30.2640681,7.05029925 30.652433,6.34212603 31.1555976,5.73272434 C31.6459389,5.13823156 32.2480266,4.66487367 32.9545332,4.3169991 L32.9551438,4.3169991 C33.6427207,3.97471538 34.4347164,3.8013993 35.3146438,3.8013993 L36.7441442,3.8013993 L36.7441442,0.861238029 L35.5240922,0.861238029 C33.554789,0.861238029 31.717994,1.42467058 30.3403977,2.47512753" id="Fill-10"></path>
            <path d="M4.26908292,12.6789097 C4.81499208,12.9615578 5.33891832,13.2963871 5.84574674,13.6554433 C5.83414464,13.4423701 5.82498509,13.2237061 5.82498509,12.9994513 C5.82559573,10.9258704 6.26952857,8.80942638 7.29845132,7.18249159 C7.78635,6.40350105 9.22500994,4.43676735 12.2629273,4.43676735 C15.2996233,4.43676735 16.7358407,6.40350105 17.2280138,7.18249159 C18.2569366,8.80942638 18.7008694,10.9258704 18.7027013,12.9994513 C18.7027013,13.2212213 18.6910992,13.4398853 18.6819397,13.6554433 C19.1875468,13.2963871 19.7096411,12.9615578 20.2579929,12.6789097 C21.9128182,11.8148141 23.0669214,10.8115687 23.8809001,9.87603464 L24.1337036,9.56915958 C23.4766586,6.75199681 22.0294498,4.51938756 20.0094637,2.96886093 C18.9823729,2.18365834 16.1728337,0.498951518 12.2641485,0.498951518 C8.35302081,0.498951518 5.54409224,2.18365834 4.5170014,2.96886093 C2.49945792,4.51938756 1.05163843,6.75199681 0.393372127,9.56915958 L0.648007609,9.87479223 C1.46076498,10.8090839 2.61486825,11.8148141 4.26908292,12.6789097" id="Fill-12"></path>
            <path d="M4.72406828,16.4740348 C3.63347123,15.6248482 1.33076044,14.1625326 0.00995337733,12.6592175 C-0.115837772,16.1137362 0.92529771,19.0837153 2.5031828,21.1125694 C4.01267659,23.0538337 6.12181557,24.3881812 8.60038971,25.0286431 C8.60161099,24.9304928 8.73534041,22.6133997 8.24805237,21.1982957 C7.5720776,19.2452285 6.31050229,17.6810353 4.72406828,16.4740348" id="Fill-14"></path>
            <path d="M14.0845785,21.2714114 C13.8110133,21.3645921 13.0373366,21.5565444 12.2642707,21.5565444 C11.4844877,21.5565444 10.7059259,21.3621073 10.4299182,21.2676842 C10.4500692,21.561514 10.534337,22.4740635 10.4775478,23.3617649 C10.4146523,24.364389 10.2045932,25.3309834 10.2045932,25.3309834 C10.4970882,25.3688769 11.3794582,25.4521183 12.2630494,25.4521183 C13.1429768,25.4521183 14.0247361,25.3688769 14.3172311,25.3309834 C14.3044077,25.275075 14.100455,24.3314652 14.0369488,23.3605224 C13.9813809,22.4473517 14.0632062,21.5118176 14.0845785,21.2714114" id="Fill-17"></path>
            <path d="M19.8075262,16.4740348 C18.2217028,17.6810353 16.9564637,19.2452285 16.2835421,21.1982957 C15.7962541,22.6133997 15.9287622,24.9304928 15.9312048,25.0286431 C18.4110002,24.3881812 20.5189179,23.0538337 22.0265798,21.1125694 C23.6069074,19.0837153 24.6474323,16.1137362 24.5222517,12.6592175 C23.1990021,14.1625326 20.8962913,15.6248482 19.8075262,16.4740348" id="Fill-19"></path>
            <path d="M15.7925625,32.5137959 C15.8087352,32.6765178 15.8168214,32.8311013 15.8168214,32.977551 L15.8168214,33.416898 C15.8168214,34.0515134 15.6672262,34.6576434 15.3680313,35.2353061 C15.0688363,35.8129689 14.6483524,36.3255352 14.106567,36.7730204 C13.5647815,37.2205056 12.9219263,37.5744205 12.1779821,37.8347755 C11.4340379,38.0951306 10.6173289,38.2253061 9.72783036,38.2253061 C8.40166896,38.2253061 7.41110595,37.9242751 6.75611161,37.3222041 C6.10111726,36.720133 5.773625,35.9390796 5.773625,34.9790204 C5.773625,34.1979553 6.03642743,33.3924939 6.56204018,32.5626122 C7.08765293,31.7327305 7.95692251,30.976085 9.169875,30.2926531 C10.3828275,29.6092211 11.9839008,29.0437709 13.9731429,28.5962857 C15.9623849,28.1488005 18.4286847,27.9250612 21.3721161,27.9250612 C22.2777873,27.9250612 23.1025826,27.9494691 23.8465268,27.9982857 C24.590471,28.0471023 25.229283,28.0715102 25.7629821,28.0715102 C26.2319904,28.0715102 26.6241725,28.0471023 26.9395402,27.9982857 C27.2549078,27.9494691 27.5257965,27.9250612 27.7522143,27.9250612 C27.9462867,27.9250612 28.1241837,27.986081 28.2859107,28.1081224 C28.4476377,28.2301639 28.5285,28.4050873 28.5285,28.632898 C28.5285,28.7793477 28.4840257,28.8973193 28.3950759,28.9868163 C28.306126,29.0763134 28.1484446,29.1373332 27.9220268,29.1698776 C27.695609,29.2024219 27.3923754,29.2227619 27.012317,29.230898 C26.6322585,29.2390341 26.1511279,29.243102 25.5689107,29.243102 C24.4368217,29.243102 23.4947761,29.4424334 22.7427455,29.841102 C21.990715,30.2397707 21.2912562,30.8418327 20.6443482,31.6473061 C19.9974402,32.4527795 19.3262832,33.4616402 18.6308571,34.6739184 C17.935431,35.8861965 17.0702046,37.2977879 16.0351518,38.9087347 C15.6793524,39.4619892 15.2305667,40.0884591 14.6887813,40.7881633 C14.1469958,41.4878674 13.5041406,42.1468813 12.7601964,42.7652245 C12.0162522,43.3835677 11.1671982,43.90427 10.2130089,44.3273469 C9.25881963,44.7504239 8.18335122,44.9619592 6.98657143,44.9619592 C6.53373583,44.9619592 6.05664834,44.9090754 5.55529464,44.8033061 C5.05394095,44.6975369 4.59706903,44.5266815 4.18466518,44.2907347 C3.77226133,44.0547879 3.43263973,43.741553 3.16579018,43.3510204 C2.89894063,42.9604878 2.76551786,42.4804654 2.76551786,41.9109388 C2.76551786,41.5529506 2.86659572,41.2478516 3.06875446,40.9956327 C3.27091321,40.7434137 3.55797433,40.6173061 3.92994643,40.6173061 C4.18870963,40.6173061 4.40299469,40.7027338 4.57280804,40.8735918 C4.74262138,41.0444498 4.82752679,41.2600531 4.82752679,41.5204082 C4.82752679,41.764491 4.7466645,41.9597544 4.5849375,42.1062041 C4.4232105,42.2526538 4.23722724,42.3258776 4.02698214,42.3258776 C3.91377324,42.3258776 3.8167385,42.3096056 3.735875,42.2770612 C3.8167385,43.0581264 4.18061879,43.6520524 4.82752679,44.0588571 C5.47443478,44.4656619 6.27497142,44.6690612 7.22916071,44.6690612 C8.13483191,44.6690612 8.96771346,44.4656619 9.72783036,44.0588571 C10.4879473,43.6520524 11.1954923,43.1150782 11.8504866,42.4479184 C12.505481,41.7807586 13.1240774,41.0200451 13.7062946,40.1657551 C14.2885118,39.3114651 14.8666772,38.4246441 15.440808,37.5052653 C16.0149389,36.5858866 16.5931042,35.6746576 17.1753214,34.771551 C17.7575386,33.8684445 18.372092,33.0426432 19.019,32.2941224 C19.665908,31.5456017 20.3572805,30.9069278 21.0931384,30.3780816 C21.8289962,29.8492355 22.6416622,29.5034566 23.5311607,29.3407347 L23.5311607,29.2919184 C22.8033892,29.2919184 22.0109388,29.2593745 21.1537857,29.1942857 C20.2966326,29.129197 19.5041822,29.0966531 18.7764107,29.0966531 C16.7386505,29.0966531 14.9313784,29.2471686 13.3545402,29.5482041 C11.7777019,29.8492396 10.4475173,30.2641742 9.36394643,30.7930204 C8.28037553,31.3218666 7.45962333,31.9442685 6.90166518,32.6602449 C6.34370703,33.3762213 6.06473214,34.1491387 6.06473214,34.9790204 C6.06473214,35.9553518 6.3922244,36.6916574 7.04721875,37.1879592 C7.7022131,37.684261 8.62808628,37.9324082 9.82486607,37.9324082 C10.6658465,37.9324082 11.4340382,37.8063006 12.1294643,37.5540816 C12.8248904,37.3018627 13.4232713,36.9682878 13.924625,36.5533469 C14.4259787,36.1384061 14.8181608,35.6624517 15.101183,35.1254694 C15.3842053,34.5884871 15.5257143,34.0352409 15.5257143,33.4657143 L15.5257143,33.0019592 C15.5257143,32.8392373 15.5176281,32.6765178 15.5014554,32.5137959 L15.7925625,32.5137959 Z M26.0298304,36.1750204 L27.6066607,36.1750204 C27.0082708,37.0211743 26.4341486,37.8429076 25.8842768,38.6402449 C25.334405,39.4375822 24.8451882,40.1738878 24.4166116,40.8491837 C23.9880351,41.5244796 23.6443703,42.1184056 23.3856071,42.6309796 C23.1268439,43.1435536 22.9974643,43.5462842 22.9974643,43.8391837 C22.9974643,44.2622606 23.2157925,44.4737959 23.6524554,44.4737959 C23.9920821,44.4737959 24.4246953,44.3070085 24.950308,43.9734286 C25.4759208,43.6398487 26.0459999,43.1801662 26.6605625,42.5943673 C27.2751251,42.0085685 27.9058509,41.3251468 28.5527589,40.5440816 C29.1996669,39.7630165 29.8142203,38.9331473 30.3964375,38.054449 L30.5419911,38.1032653 C30.1053282,38.7704251 29.5918527,39.4904587 29.0015491,40.2633878 C28.4112456,41.0363168 27.7926491,41.7563504 27.1457411,42.4235102 C26.4988331,43.09067 25.8519348,43.6479842 25.2050268,44.0954694 C24.5581188,44.5429546 23.9516516,44.7666939 23.3856071,44.7666939 C22.9165988,44.7666939 22.5729341,44.6487223 22.3546027,44.4127755 C22.1362712,44.1768288 22.0271071,43.8961377 22.0271071,43.5706939 C22.0271071,43.3428832 22.0634952,43.119144 22.1362723,42.8994694 C22.2090495,42.6797948 22.2858686,42.4560556 22.3667321,42.2282449 L22.3182143,42.2038367 C22.1079692,42.4316474 21.8451668,42.6960665 21.5297991,42.997102 C21.2144315,43.2981376 20.8748099,43.5788286 20.5109241,43.8391837 C20.1470384,44.0995387 19.7710287,44.31921 19.3828839,44.4982041 C18.9947391,44.6771982 18.6227726,44.7666939 18.2669732,44.7666939 C17.6685833,44.7666939 17.2480994,44.5795665 17.0055089,44.2053061 C16.7629184,43.8310457 16.641625,43.4079751 16.641625,42.9360816 C16.641625,42.2689218 16.8518669,41.5326163 17.2723571,40.7271429 C17.6928473,39.9216694 18.2265384,39.1650239 18.8734464,38.4571837 C19.5203544,37.7493434 20.2238563,37.1594854 20.9839732,36.6875918 C21.7440901,36.2156983 22.4637645,35.9797551 23.1430179,35.9797551 C23.4664719,35.9797551 23.7494899,36.024503 23.9920804,36.114 C24.2346709,36.203497 24.4368266,36.3255366 24.5985536,36.4801224 C24.7602806,36.6347083 24.8856171,36.8096317 24.974567,37.004898 C25.0635168,37.2001642 25.1322498,37.4035636 25.1807679,37.615102 L25.2292857,37.615102 L26.0298304,36.1750204 Z M18.0971607,43.0093061 C18.0971607,43.3835665 18.1739799,43.6723935 18.3276205,43.8757959 C18.4812612,44.0791983 18.6955462,44.180898 18.9704821,44.180898 C19.245418,44.180898 19.5688672,44.0791983 19.9408393,43.8757959 C20.3128114,43.6723935 20.7009504,43.3998384 21.1052679,43.0581224 C21.5095854,42.7164065 21.9098537,42.3218118 22.3060848,41.8743265 C22.702316,41.4268413 23.0540669,40.9508869 23.3613482,40.446449 C23.6686295,39.9420111 23.9193026,39.4294448 24.113375,38.9087347 C24.3074474,38.3880246 24.4044821,37.8917303 24.4044821,37.4198367 C24.4044821,37.0455764 24.2993612,36.7608173 24.0891161,36.565551 C23.878871,36.3702847 23.6201117,36.2726531 23.3128304,36.2726531 C22.8276494,36.2726531 22.285872,36.4841884 21.6874821,36.9072653 C21.0890922,37.3303423 20.5230562,37.8713845 19.9893571,38.5304082 C19.455658,39.1894319 19.0068724,39.9176015 18.6429866,40.7149388 C18.2791009,41.5122761 18.0971607,42.2770576 18.0971607,43.0093061 Z M38.5474375,38.2741224 C38.0622565,39.0551876 37.5002636,39.832173 36.861442,40.605102 C36.2226203,41.3780311 35.5231615,42.0736568 34.7630446,42.692 C34.0029277,43.3103432 33.1740893,43.8107056 32.2765045,44.193102 C31.3789196,44.5754985 30.4207015,44.7666939 29.4018214,44.7666939 C29.0136766,44.7666939 28.6497963,44.717878 28.3101696,44.6202449 C27.9705429,44.5226118 27.6753956,44.3761642 27.4247188,44.180898 C27.1740419,43.9856317 26.9718862,43.7374845 26.8182455,43.436449 C26.6646049,43.1354135 26.5877857,42.7814986 26.5877857,42.3746939 C26.5877857,41.9516169 26.7252516,41.5692262 27.0001875,41.2275102 C27.2751234,40.8857942 27.6470899,40.7149388 28.1160982,40.7149388 C28.3586887,40.7149388 28.5568013,40.7759586 28.710442,40.898 C28.8640826,41.0200414 28.9409018,41.2031008 28.9409018,41.4471837 C28.9409018,41.6749943 28.8842982,41.8702577 28.7710893,42.0329796 C28.6578804,42.1957015 28.4880696,42.2770612 28.2616518,42.2770612 C28.0837521,42.2770612 27.9422431,42.2282454 27.8371205,42.1306122 C27.731998,42.0329791 27.663265,41.9109395 27.6309196,41.7644898 C27.4530199,41.8621229 27.3317265,42.0045025 27.2670357,42.1916327 C27.2023449,42.3787628 27.17,42.5699582 27.17,42.7652245 C27.17,43.3347511 27.3842851,43.7618897 27.8128616,44.0466531 C28.2414382,44.3314164 28.7225688,44.4737959 29.2562679,44.4737959 C29.5958946,44.4737959 29.8910419,44.4046401 30.1417188,44.2663265 C30.3923956,44.1280129 30.6026375,43.9490215 30.7724509,43.7293469 C30.9422642,43.5096724 31.0676008,43.2533892 31.1484643,42.9604898 C31.2293278,42.6675904 31.2697589,42.3746953 31.2697589,42.0817959 C31.2697589,41.7726243 31.2171984,41.4512534 31.1120759,41.1176735 C31.0069533,40.7840936 30.889703,40.4545867 30.7603214,40.1291429 C30.6309398,39.8036991 30.5096464,39.4823281 30.3964375,39.1650204 C30.2832286,38.8477127 30.226625,38.5507497 30.226625,38.2741224 C30.226625,37.9161343 30.2994011,37.5947633 30.4449554,37.31 C30.5905097,37.0252367 30.7886223,36.7852255 31.0392991,36.5899592 C31.289976,36.3946929 31.5770371,36.2441774 31.9004911,36.1384082 C32.2239451,36.0326389 32.5635667,35.9797551 32.9193661,35.9797551 C33.5662741,35.9797551 34.0918789,36.1221346 34.4961964,36.406898 C34.9005139,36.6916613 35.1026696,37.069984 35.1026696,37.5418776 C35.1026696,37.9649545 34.9449882,38.2741215 34.6296205,38.4693878 C34.3142529,38.664654 33.9625019,38.7622857 33.5743571,38.7622857 C33.6713933,38.5832916 33.7562987,38.3676883 33.8290759,38.1154694 C33.901853,37.8632504 33.9382411,37.6313752 33.9382411,37.4198367 C33.9382411,37.0943929 33.8371632,36.8218378 33.6350045,36.6021633 C33.4328457,36.3824887 33.1457846,36.2726531 32.7738125,36.2726531 C32.3048042,36.2726531 31.9570964,36.4150326 31.7306786,36.6997959 C31.5042608,36.9845592 31.3910536,37.3303381 31.3910536,37.7371429 C31.3910536,38.095131 31.4517003,38.4368419 31.5729955,38.7622857 C31.6942908,39.0877295 31.8357998,39.4131684 31.9975268,39.7386122 C32.1430811,40.064056 32.2765039,40.3976309 32.3977991,40.7393469 C32.5190944,41.0810629 32.5797411,41.4634537 32.5797411,41.8865306 C32.5797411,42.1957022 32.5110081,42.4926652 32.3735402,42.7774286 C32.2360722,43.0621919 32.0541321,43.322543 31.8277143,43.5584898 C31.6012965,43.7944366 31.3465803,43.9937679 31.063558,44.1564898 C30.7805358,44.3192117 30.4934747,44.4249793 30.2023661,44.4737959 L30.2508839,44.5226122 C31.1242097,44.4249791 31.9570913,44.168696 32.7495536,43.7537551 C33.5420159,43.3388143 34.2819058,42.8343839 34.9692455,42.240449 C35.6565853,41.646514 36.2913542,40.9956362 36.8735714,40.2877959 C37.4557886,39.5799556 37.965221,38.8843299 38.4018839,38.200898 L38.5474375,38.2741224 Z M46.3102946,27.6809796 C44.9841333,29.7963643 43.6579917,31.8751054 42.3318304,33.9172653 C41.005669,35.9594252 39.6310101,37.9730785 38.2078125,39.9582857 L38.2563304,40.007102 C38.6768206,39.5352085 39.0932613,39.0592541 39.5056652,38.5792245 C39.918069,38.0991949 40.3466391,37.6679883 40.7913884,37.2855918 C41.2361376,36.9031954 41.6970527,36.5899604 42.1741473,36.3458776 C42.651242,36.1017947 43.148545,35.9797551 43.6660714,35.9797551 C44.1997705,35.9797551 44.5838664,36.1099307 44.8183705,36.3702857 C45.0528747,36.6306408 45.170125,36.9479437 45.170125,37.3222041 C45.170125,37.7127366 45.0528747,38.0585155 44.8183705,38.359551 C44.5838664,38.6605865 44.2927622,38.9209377 43.9450491,39.1406122 C43.5973361,39.3602868 43.2172833,39.5352102 42.8048795,39.6653878 C42.3924756,39.7955653 42.016466,39.893197 41.6768393,39.9582857 L41.6768393,40.007102 C41.8709117,40.1047352 42.0366794,40.2877946 42.1741473,40.5562857 C42.3116153,40.8247769 42.3803482,41.1054679 42.3803482,41.3983673 C42.3803482,41.5936336 42.3439602,41.797033 42.271183,42.0085714 C42.1984059,42.2201099 42.1135005,42.4397812 42.0164643,42.6675918 C41.9194281,42.8954025 41.8345227,43.1191418 41.7617455,43.3388163 C41.6889684,43.5584909 41.6525804,43.7822302 41.6525804,44.0100408 C41.6525804,44.3192124 41.78196,44.4737959 42.0407232,44.4737959 C42.4773861,44.4737959 43.0272497,44.2785326 43.6903304,43.888 C44.3534111,43.4974674 45.0569129,42.9279493 45.8008571,42.1794286 C46.3183835,41.6587185 46.8439884,41.0810644 47.3776875,40.446449 C47.9113866,39.8118336 48.4855088,39.0470521 49.1000714,38.1520816 L49.3184018,38.2985306 C49.0111205,38.7378797 48.5623348,39.3399418 47.9720313,40.1047347 C47.3817277,40.8695276 46.6903552,41.650581 45.8978929,42.4479184 C45.137776,43.2127113 44.4181016,43.7903654 43.7388482,44.180898 C43.0595948,44.5714305 42.4369552,44.7666939 41.8709107,44.7666939 C41.3857297,44.7666939 41.0097201,44.6609262 40.7428705,44.4493878 C40.476021,44.2378493 40.3425982,43.9124104 40.3425982,43.4730612 C40.3425982,43.2452506 40.3992018,42.9889674 40.5124107,42.7042041 C40.6256196,42.4194408 40.746913,42.1428177 40.8762946,41.8743265 C41.0056762,41.6058354 41.1269697,41.3536202 41.2401786,41.1176735 C41.3533875,40.8817267 41.4099911,40.6905313 41.4099911,40.5440816 C41.4099911,40.23491 41.2725252,40.0803265 40.9975893,40.0803265 C40.8358623,40.0803265 40.6458359,40.1128704 40.4275045,40.1779592 C40.209173,40.2430479 39.962543,40.2755918 39.6876071,40.2755918 C39.4450166,40.2755918 39.3237232,40.2023681 39.3237232,40.0559184 C39.3237232,39.9094687 39.4450166,39.8362449 39.6876071,39.8362449 C39.7846433,39.8362449 39.8938074,39.8443809 40.0151027,39.8606531 C40.1363979,39.8769253 40.2859932,39.8850612 40.4638929,39.8850612 C40.9490739,39.8850612 41.3978595,39.8281094 41.8102634,39.7142041 C42.2226672,39.6002988 42.5825044,39.4335113 42.8897857,39.2138367 C43.197067,38.9941622 43.4356108,38.729743 43.6054241,38.4205714 C43.7752375,38.1113998 43.8601429,37.761553 43.8601429,37.3710204 C43.8601429,37.0293044 43.7792806,36.7770892 43.6175536,36.6143673 C43.4558266,36.4516454 43.2617571,36.3702857 43.0353393,36.3702857 C42.728058,36.3702857 42.3722639,36.4963933 41.9679464,36.7486122 C41.5636289,37.0008312 41.1310157,37.3425421 40.6700938,37.7737551 C40.2091718,38.2049681 39.7401705,38.7012625 39.2630759,39.2626531 C38.7859812,39.8240436 38.3250662,40.4098337 37.880317,41.0200408 C37.4355677,41.6302479 37.0191269,42.2404459 36.6309821,42.8506531 C36.2428373,43.4608602 35.911302,44.0344463 35.6363661,44.5714286 L34.0352768,44.5714286 C35.8304465,41.7563397 37.6215461,38.9616329 39.4086295,36.1872245 C41.1957128,33.4128161 42.9948987,30.6018374 44.8062411,27.7542041 L46.3102946,27.6809796 Z" id="Task"></path>
            <path d="M75.7606339,38.0056327 C75.2592802,39.1284138 74.6528131,40.1047305 73.9412143,40.9346122 C73.2296155,41.7644939 72.4371651,42.4479157 71.5638393,42.984898 C70.6905135,43.5218802 69.7444247,43.9205429 68.7255446,44.180898 C67.7066645,44.441253 66.6473686,44.5714286 65.547625,44.5714286 C65.2079983,44.5714286 64.9249803,44.5836325 64.6985625,44.6080408 C64.4721447,44.6324491 64.2861614,44.656857 64.1406071,44.6812653 L63.7767232,44.7422857 C63.679687,44.7585579 63.5826523,44.7666939 63.4856161,44.7666939 C63.3400618,44.7666939 63.2187683,44.7463539 63.1217321,44.7056735 C63.0246959,44.664993 62.9761786,44.5958372 62.9761786,44.4982041 C62.9761786,44.3680266 63.0449115,44.2907348 63.1823795,44.2663265 C63.3198474,44.2419182 63.4290115,44.2297143 63.509875,44.2297143 C63.7362928,44.2297143 63.954621,44.2459862 64.1648661,44.2785306 C64.3751112,44.311075 64.5934393,44.3436189 64.8198571,44.3761633 C65.7902191,43.9042697 66.6150145,43.224916 67.2942679,42.3380816 C67.9735213,41.4512473 68.5799884,40.4586586 69.1136875,39.3602857 C69.6473866,38.2619129 70.1446897,37.1106727 70.6056116,35.9065306 C71.0665336,34.7023885 71.575966,33.5592843 72.1339241,32.4771837 C72.6918823,31.395083 73.3347374,30.4187663 74.0625089,29.5482041 C74.7902804,28.6776419 75.6797656,28.0226961 76.7309911,27.5833469 L76.6824732,27.5345306 C75.9870471,27.6484359 75.2431141,27.9576029 74.4506518,28.4620408 C73.6581895,28.9664787 72.861696,29.5970166 72.0611473,30.3536735 C71.2605987,31.1103303 70.4681483,31.9564715 69.6837723,32.8921224 C68.8993964,33.8277734 68.1514202,34.7918862 67.4398214,35.7844898 C66.8899496,36.5655549 66.3279567,37.3628803 65.7538259,38.1764898 C65.179695,38.9900993 64.5853572,39.7833567 63.9707946,40.5562857 C63.356232,41.3292147 62.7012475,42.0736563 62.0058214,42.7896327 C61.3103953,43.505609 60.5502898,44.1646228 59.7254821,44.7666939 L59.5556696,44.5226122 C60.1217141,43.6276418 60.5785861,42.667597 60.9262991,41.642449 C61.2740122,40.617301 61.5974613,39.5758964 61.8966562,38.5182041 C62.1958512,37.4605117 62.4990848,36.4109712 62.8063661,35.369551 C63.1136474,34.3281308 63.5058295,33.3355421 63.9829241,32.3917551 C64.4600188,31.4479681 65.0543566,30.577419 65.7659554,29.7800816 C66.4775542,28.9827443 67.3751255,28.3074585 68.4586964,27.7542041 L68.4101786,27.7053878 C67.3427804,28.0633759 66.3643467,28.5800102 65.4748482,29.2553061 C64.5853497,29.930602 63.7605544,30.6953835 63.0004375,31.5496735 C62.2403206,32.4039635 61.5368187,33.3233284 60.8899107,34.3077959 C60.2430027,35.2922634 59.6203631,36.2726482 59.0219732,37.2489796 C58.4235833,38.225311 57.8494611,39.1690839 57.2995893,40.0803265 C56.7497175,40.9915692 56.1836815,41.7929625 55.6014643,42.4845306 C55.0192471,43.1760987 54.3966075,43.7293449 53.7335268,44.1442857 C53.0704461,44.5592266 52.3265131,44.7666939 51.5017054,44.7666939 C51.2914603,44.7666939 51.0852614,44.7504219 50.8831027,44.7178776 C50.6809439,44.6853332 50.4949607,44.6202454 50.3251473,44.5226122 C50.155334,44.4249791 50.0178681,44.2948035 49.9127455,44.1320816 C49.807623,43.9693597 49.7550625,43.7578244 49.7550625,43.4974694 C49.7550625,43.2533865 49.8359248,43.0499872 49.9976518,42.8872653 C50.1593788,42.7245434 50.3615345,42.6431837 50.604125,42.6431837 C50.8143701,42.6431837 50.9841809,42.7245434 51.1135625,42.8872653 C51.2429441,43.0499872 51.3076339,43.2371146 51.3076339,43.4486531 C51.3076339,43.5788306 51.2793321,43.7171421 51.2227277,43.8635918 C51.1661232,44.0100415 51.0731316,44.0995373 50.94375,44.1320816 C50.9599227,44.2297148 51.0569574,44.3110745 51.2348571,44.3761633 C51.4127568,44.441252 51.5825676,44.4737959 51.7442946,44.4737959 C52.4558934,44.4737959 53.1189642,44.2500567 53.7335268,43.8025714 C54.3480894,43.3550862 54.9505134,42.7611602 55.540817,42.0207755 C56.1311205,41.2803909 56.7173721,40.4342497 57.2995893,39.4823265 C57.8818065,38.5304034 58.4882736,37.5418827 59.1190089,36.5167347 C59.8629531,35.3288648 60.6068862,34.2142365 61.3508304,33.1728163 C62.0947746,32.1313962 62.8953112,31.1998272 63.7524643,30.3780816 C64.6096174,29.556336 65.551663,28.8607103 66.5786295,28.2911837 C67.6055959,27.721657 68.774056,27.3067224 70.0840446,27.0463673 L70.1083036,27.2660408 C69.1055962,27.5752124 68.2727146,28.0674388 67.6096339,28.7427347 C66.9465532,29.4180306 66.3764741,30.211288 65.8993795,31.1225306 C65.4222848,32.0337733 65.0098872,33.026362 64.6621741,34.1003265 C64.3144611,35.1742911 63.958667,36.2604435 63.5947812,37.3588163 C63.2308955,38.4571892 62.8306272,39.5352056 62.3939643,40.592898 C61.9573014,41.6505903 61.4074378,42.6269071 60.7443571,43.5218776 L60.792875,43.5706939 C61.3912649,43.0499838 61.9936889,42.4357178 62.6001652,41.7278776 C63.2066414,41.0200373 63.8009792,40.2796637 64.3831964,39.5067347 C64.9654136,38.7338057 65.5274065,37.9608882 66.069192,37.1879592 C66.6109774,36.4150301 67.1163667,35.7031325 67.585375,35.0522449 C68.8468456,33.3111205 70.0031763,31.9117332 71.0544018,30.8540408 C72.1056273,29.7963485 73.0759747,28.9786832 73.9654732,28.4010204 C74.8549717,27.8233577 75.6676377,27.4368989 76.4034955,27.2416327 C77.1393534,27.0463664 77.8226397,26.9487347 78.453375,26.9487347 C78.6959655,26.9487347 78.9304661,26.9853466 79.1568839,27.0585714 C79.3833017,27.1317963 79.4965089,27.2497679 79.4965089,27.4124898 C79.4965089,27.5426673 79.4479916,27.624027 79.3509554,27.6565714 C79.2539192,27.6891158 79.140712,27.7053878 79.0113304,27.7053878 C78.7849126,27.7053878 78.5463688,27.6769118 78.295692,27.6199592 C78.0450151,27.5630065 77.7983851,27.5345306 77.5557946,27.5345306 C77.1838225,27.5345306 76.8078129,27.6972501 76.4277545,28.0226939 C76.047696,28.3481377 75.6676433,28.7712083 75.2875848,29.2919184 C74.9075264,29.8126285 74.539603,30.3943505 74.1838036,31.037102 C73.8280042,31.6798536 73.5005119,32.3144595 73.201317,32.9409388 C72.902122,33.5674181 72.6433627,34.1491402 72.4250313,34.6861224 C72.2066998,35.2231047 72.0328459,35.6461753 71.9034643,35.9553469 C71.6447011,36.6550511 71.3455106,37.3994927 71.0058839,38.1886939 C70.6662572,38.9778951 70.2457733,39.7508125 69.7444196,40.5074694 C69.2430659,41.2641262 68.6325557,41.9760239 67.9128705,42.6431837 C67.1931854,43.3103435 66.3158296,43.8717256 65.2807768,44.3273469 L65.2807768,44.3761633 C67.7390272,44.3761633 69.8212311,43.839189 71.5274509,42.7652245 C73.2336707,41.6912599 74.5800278,40.0884732 75.5665625,37.9568163 L75.7606339,38.0056327 Z M82.1649911,36.1750204 L83.7418214,36.1750204 C83.1434315,37.0211743 82.5693093,37.8429076 82.0194375,38.6402449 C81.4695657,39.4375822 80.9803489,40.1738878 80.5517723,40.8491837 C80.1231958,41.5244796 79.7795311,42.1184056 79.5207679,42.6309796 C79.2620047,43.1435536 79.132625,43.5462842 79.132625,43.8391837 C79.132625,44.2622606 79.3509532,44.4737959 79.7876161,44.4737959 C80.1272428,44.4737959 80.559856,44.3070085 81.0854688,43.9734286 C81.6110815,43.6398487 82.1811606,43.1801662 82.7957232,42.5943673 C83.4102858,42.0085685 84.0410116,41.3251468 84.6879196,40.5440816 C85.3348276,39.7630165 85.949381,38.9331473 86.5315982,38.054449 L86.6771518,38.1032653 C86.2404889,38.7704251 85.7270134,39.4904587 85.1367098,40.2633878 C84.5464063,41.0363168 83.9278098,41.7563504 83.2809018,42.4235102 C82.6339938,43.09067 81.9870955,43.6479842 81.3401875,44.0954694 C80.6932795,44.5429546 80.0868124,44.7666939 79.5207679,44.7666939 C79.0517596,44.7666939 78.7080948,44.6487223 78.4897634,44.4127755 C78.2714319,44.1768288 78.1622679,43.8961377 78.1622679,43.5706939 C78.1622679,43.3428832 78.1986559,43.119144 78.271433,42.8994694 C78.3442102,42.6797948 78.4210294,42.4560556 78.5018929,42.2282449 L78.453375,42.2038367 C78.2431299,42.4316474 77.9803275,42.6960665 77.6649598,42.997102 C77.3495922,43.2981376 77.0099706,43.5788286 76.6460848,43.8391837 C76.2821991,44.0995387 75.9061894,44.31921 75.5180446,44.4982041 C75.1298998,44.6771982 74.7579333,44.7666939 74.4021339,44.7666939 C73.803744,44.7666939 73.3832601,44.5795665 73.1406696,44.2053061 C72.8980791,43.8310457 72.7767857,43.4079751 72.7767857,42.9360816 C72.7767857,42.2689218 72.9870277,41.5326163 73.4075179,40.7271429 C73.8280081,39.9216694 74.3616991,39.1650239 75.0086071,38.4571837 C75.6555151,37.7493434 76.359017,37.1594854 77.1191339,36.6875918 C77.8792508,36.2156983 78.5989252,35.9797551 79.2781786,35.9797551 C79.6016326,35.9797551 79.8846506,36.024503 80.1272411,36.114 C80.3698316,36.203497 80.5719873,36.3255366 80.7337143,36.4801224 C80.8954413,36.6347083 81.0207778,36.8096317 81.1097277,37.004898 C81.1986775,37.2001642 81.2674105,37.4035636 81.3159286,37.615102 L81.3644464,37.615102 L82.1649911,36.1750204 Z M74.2323214,43.0093061 C74.2323214,43.3835665 74.3091406,43.6723935 74.4627813,43.8757959 C74.6164219,44.0791983 74.830707,44.180898 75.1056429,44.180898 C75.3805788,44.180898 75.7040279,44.0791983 76.076,43.8757959 C76.4479721,43.6723935 76.8361111,43.3998384 77.2404286,43.0581224 C77.6447461,42.7164065 78.0450144,42.3218118 78.4412455,41.8743265 C78.8374767,41.4268413 79.1892276,40.9508869 79.4965089,40.446449 C79.8037902,39.9420111 80.0544633,39.4294448 80.2485357,38.9087347 C80.4426081,38.3880246 80.5396429,37.8917303 80.5396429,37.4198367 C80.5396429,37.0455764 80.4345219,36.7608173 80.2242768,36.565551 C80.0140317,36.3702847 79.7552724,36.2726531 79.4479911,36.2726531 C78.9628101,36.2726531 78.4210328,36.4841884 77.8226429,36.9072653 C77.224253,37.3303423 76.658217,37.8713845 76.1245179,38.5304082 C75.5908188,39.1894319 75.1420331,39.9176015 74.7781473,40.7149388 C74.4142616,41.5122761 74.2323214,42.2770576 74.2323214,43.0093061 Z M88.8847143,36.1750204 L85.6825357,40.6417143 L85.7310536,40.6905306 C86.0706803,40.2837259 86.4669055,39.8077714 86.9197411,39.2626531 C87.3725767,38.7175347 87.8577504,38.2009004 88.3752768,37.7127347 C88.8928032,37.224569 89.4305374,36.8137023 89.9884955,36.4801224 C90.5464537,36.1465425 91.1003603,35.9797551 91.6502321,35.9797551 C92.1354131,35.9797551 92.5114228,36.1139987 92.7782723,36.3824898 C93.0451219,36.6509809 93.1785446,36.9967598 93.1785446,37.4198367 C93.1785446,37.6801918 93.085553,37.9893588 92.899567,38.3473469 C92.7135809,38.7053351 92.4831234,39.0877259 92.2081875,39.4945306 C91.9332516,39.9013354 91.6340611,40.31627 91.3106071,40.7393469 C90.9871531,41.1624239 90.6879627,41.5651546 90.4130268,41.947551 C90.1380909,42.3299475 89.9076334,42.6797943 89.7216473,42.997102 C89.5356613,43.3144097 89.4426696,43.5788289 89.4426696,43.7903673 C89.4426696,44.2459887 89.669084,44.4737959 90.1219196,44.4737959 C90.639446,44.4737959 91.1893096,44.2988725 91.7715268,43.9490204 C92.353744,43.5991683 93.0491596,43.0093103 93.8577946,42.1794286 C94.1812486,41.8539848 94.5087409,41.496002 94.8402812,41.1054694 C95.1718216,40.7149368 95.4912276,40.3284781 95.7985089,39.9460816 C96.1057902,39.5636852 96.3847651,39.2016344 96.635442,38.8599184 C96.8861188,38.5182024 97.0842314,38.2334433 97.2297857,38.0056327 L97.3995982,38.1032653 C97.0761442,38.591431 96.6597034,39.1731531 96.1502634,39.848449 C95.6408233,40.5237449 95.0869167,41.1868267 94.4885268,41.8377143 C94.1327274,42.2282469 93.7688471,42.6025016 93.396875,42.9604898 C93.0249029,43.318478 92.6529364,43.6317129 92.2809643,43.9002041 C91.9089922,44.1686952 91.5410688,44.3802305 91.177183,44.5348163 C90.8132973,44.6894021 90.4534601,44.7666939 90.0976607,44.7666939 C89.6286524,44.7666939 89.2405134,44.6365183 88.9332321,44.3761633 C88.6259508,44.1158082 88.4723125,43.7578254 88.4723125,43.3022041 C88.4723125,42.8140384 88.666382,42.2811321 89.0545268,41.7034694 C89.4426716,41.1258066 89.8712417,40.5440846 90.34025,39.9582857 C90.8092583,39.3724869 91.2378284,38.8111047 91.6259732,38.2741224 C92.014118,37.7371402 92.2081875,37.2652537 92.2081875,36.858449 C92.2081875,36.6631827 92.1434977,36.5167352 92.0141161,36.419102 C91.8847345,36.3214689 91.7149237,36.2726531 91.5046786,36.2726531 C91.1003611,36.2726531 90.6475323,36.4231686 90.1461786,36.7242041 C89.6448249,37.0252396 89.1313494,37.4239023 88.6057366,37.9202041 C88.0801239,38.4165059 87.554519,38.9697521 87.0289063,39.5799592 C86.5032935,40.1901663 86.0140767,40.8003643 85.5612411,41.4105714 C85.1084055,42.0207786 84.704094,42.6065686 84.3482946,43.1679592 C83.9924952,43.7293497 83.7256497,44.1971682 83.54775,44.5714286 L82.0436964,44.5714286 C82.4641866,43.8554522 82.9129723,43.1272826 83.390067,42.386898 C83.8671616,41.6465133 84.340206,40.9142757 84.8092143,40.1901633 C85.2782226,39.4660508 85.7270083,38.7663571 86.1555848,38.0910612 C86.5841614,37.4157653 86.9682572,36.8014994 87.3078839,36.2482449 L88.8847143,36.1750204 Z M103.70692,36.1750204 L105.28375,36.1750204 C104.68536,37.0211743 104.111238,37.8429076 103.561366,38.6402449 C103.011494,39.4375822 102.522277,40.1738878 102.093701,40.8491837 C101.665124,41.5244796 101.32146,42.1184056 101.062696,42.6309796 C100.803933,43.1435536 100.674554,43.5462842 100.674554,43.8391837 C100.674554,44.2622606 100.892882,44.4737959 101.329545,44.4737959 C101.669171,44.4737959 102.101785,44.3070085 102.627397,43.9734286 C103.15301,43.6398487 103.723089,43.1801662 104.337652,42.5943673 C104.952214,42.0085685 105.58294,41.3251468 106.229848,40.5440816 C106.876756,39.7630165 107.49131,38.9331473 108.073527,38.054449 L108.21908,38.1032653 C107.782417,38.7704251 107.268942,39.4904587 106.678638,40.2633878 C106.088335,41.0363168 105.469738,41.7563504 104.82283,42.4235102 C104.175922,43.09067 103.529024,43.6479842 102.882116,44.0954694 C102.235208,44.5429546 101.628741,44.7666939 101.062696,44.7666939 C100.593688,44.7666939 100.250023,44.6487223 100.031692,44.4127755 C99.8133605,44.1768288 99.7041964,43.8961377 99.7041964,43.5706939 C99.7041964,43.3428832 99.7405845,43.119144 99.8133616,42.8994694 C99.8861388,42.6797948 99.9629579,42.4560556 100.043821,42.2282449 L99.9953036,42.2038367 C99.7850585,42.4316474 99.522256,42.6960665 99.2068884,42.997102 C98.8915207,43.2981376 98.5518991,43.5788286 98.1880134,43.8391837 C97.8241276,44.0995387 97.448118,44.31921 97.0599732,44.4982041 C96.6718284,44.6771982 96.2998619,44.7666939 95.9440625,44.7666939 C95.3456726,44.7666939 94.9251887,44.5795665 94.6825982,44.2053061 C94.4400077,43.8310457 94.3187143,43.4079751 94.3187143,42.9360816 C94.3187143,42.2689218 94.5289562,41.5326163 94.9494464,40.7271429 C95.3699366,39.9216694 95.9036277,39.1650239 96.5505357,38.4571837 C97.1974437,37.7493434 97.9009456,37.1594854 98.6610625,36.6875918 C99.4211794,36.2156983 100.140854,35.9797551 100.820107,35.9797551 C101.143561,35.9797551 101.426579,36.024503 101.66917,36.114 C101.91176,36.203497 102.113916,36.3255366 102.275643,36.4801224 C102.43737,36.6347083 102.562706,36.8096317 102.651656,37.004898 C102.740606,37.2001642 102.809339,37.4035636 102.857857,37.615102 L102.906375,37.615102 L103.70692,36.1750204 Z M95.77425,43.0093061 C95.77425,43.3835665 95.8510692,43.6723935 96.0047098,43.8757959 C96.1583505,44.0791983 96.3726355,44.180898 96.6475714,44.180898 C96.9225073,44.180898 97.2459565,44.0791983 97.6179286,43.8757959 C97.9899007,43.6723935 98.3780396,43.3998384 98.7823571,43.0581224 C99.1866746,42.7164065 99.586943,42.3218118 99.9831741,41.8743265 C100.379405,41.4268413 100.731156,40.9508869 101.038438,40.446449 C101.345719,39.9420111 101.596392,39.4294448 101.790464,38.9087347 C101.984537,38.3880246 102.081571,37.8917303 102.081571,37.4198367 C102.081571,37.0455764 101.97645,36.7608173 101.766205,36.565551 C101.55596,36.3702847 101.297201,36.2726531 100.98992,36.2726531 C100.504739,36.2726531 99.9629613,36.4841884 99.3645714,36.9072653 C98.7661815,37.3303423 98.2001455,37.8713845 97.6664464,38.5304082 C97.1327473,39.1894319 96.6839616,39.9176015 96.3200759,40.7149388 C95.9561901,41.5122761 95.77425,42.2770576 95.77425,43.0093061 Z M116.224527,36.1750204 C115.254165,37.4930678 114.336378,38.8355034 113.471138,40.2023673 C112.605899,41.5692313 111.712371,42.9279388 110.790527,44.2785306 C111.599162,44.0995365 112.395655,43.8066415 113.180031,43.3998367 C113.964407,42.993032 114.704297,42.5048736 115.399723,41.9353469 C116.095149,41.3658203 116.738004,40.7393504 117.328308,40.0559184 C117.918612,39.3724864 118.415915,38.6809287 118.820232,37.9812245 L118.917268,38.1276735 C118.205669,39.3480877 117.425348,40.3650844 116.576281,41.1786939 C115.727215,41.9923034 114.906462,42.6431812 114.114,43.1313469 C113.321538,43.6195126 112.60995,43.9734275 111.979214,44.193102 C111.348479,44.4127766 110.89565,44.5388842 110.620714,44.5714286 C110.539851,44.6202451 110.378126,44.8317804 110.135536,45.2060408 C109.892945,45.5803012 109.569496,46.0359157 109.165179,46.572898 C108.760861,47.1098802 108.27973,47.6793984 107.721772,48.2814694 C107.163814,48.8835404 106.533088,49.4408546 105.829576,49.9534286 C105.126063,50.4660026 104.345742,50.8931411 103.488589,51.2348571 C102.631436,51.5765731 101.709606,51.7474286 100.723071,51.7474286 C100.140854,51.7474286 99.5990769,51.6823408 99.0977232,51.5521633 C98.5963695,51.4219857 98.1637563,51.2348584 97.7998705,50.9907755 C97.4359848,50.7466927 97.1529668,50.4537976 96.950808,50.1120816 C96.7486493,49.7703656 96.6475714,49.3879749 96.6475714,48.964898 C96.6475714,48.2651938 96.8982445,47.6834717 97.3995982,47.2197143 C97.9009519,46.7559569 98.5316777,46.5240816 99.2917946,46.5240816 C99.4535216,46.5240816 99.5869444,46.5322176 99.692067,46.5484898 C99.7971895,46.564762 99.9063536,46.5891699 100.019563,46.6217143 L100.019563,46.8169796 L99.8254911,46.8169796 C99.1947558,46.8169796 98.7257545,47.0163109 98.4184732,47.4149796 C98.1111919,47.8136483 97.9575536,48.3465545 97.9575536,49.0137143 C97.9575536,49.4530634 98.0343727,49.8273182 98.1880134,50.1364898 C98.341654,50.4456614 98.551896,50.6978766 98.8187455,50.8931429 C99.0855951,51.0884091 99.3969149,51.2307887 99.7527143,51.3202857 C100.108514,51.4097828 100.496653,51.4545306 100.917143,51.4545306 C101.628742,51.4545306 102.3282,51.2877432 103.01554,50.9541633 C103.70288,50.6205834 104.361908,50.1812408 104.992643,49.6361224 C105.623378,49.0910041 106.225802,48.4767381 106.799933,47.7933061 C107.374064,47.1098741 107.915841,46.4223844 108.425281,45.7308163 C108.934721,45.0392482 109.399679,44.3720985 109.82017,43.7293469 C110.24066,43.0865954 110.612626,42.5374172 110.93608,42.0817959 L110.887563,42.0329796 C110.628799,42.3421512 110.341738,42.6553862 110.026371,42.9726939 C109.711003,43.2900016 109.375424,43.5828966 109.019625,43.8513878 C108.663826,44.1198789 108.291859,44.3395502 107.903714,44.5104082 C107.515569,44.6812662 107.111258,44.7666939 106.690768,44.7666939 C106.383487,44.7666939 106.116641,44.7097421 105.890223,44.5958367 C105.663805,44.4819314 105.477822,44.3314159 105.332268,44.1442857 C105.186714,43.9571555 105.081593,43.7496882 105.016902,43.5218776 C104.952211,43.2940669 104.919866,43.0743956 104.919866,42.8628571 C104.919866,42.3584192 105.02903,41.837717 105.247362,41.3007347 C105.465693,40.7637524 105.752754,40.2389822 106.108554,39.7264082 C106.464353,39.2138342 106.876751,38.7338118 107.345759,38.2863265 C107.814767,37.8388413 108.303984,37.4442466 108.813424,37.1025306 C109.322864,36.7608146 109.83634,36.4882595 110.353866,36.2848571 C110.871392,36.0814548 111.34848,35.9797551 111.785143,35.9797551 C112.415878,35.9797551 112.87275,36.1384066 113.155772,36.4557143 C113.438795,36.773022 113.580304,37.1432088 113.580304,37.5662857 L113.65308,37.5662857 L114.550661,36.1750204 L116.224527,36.1750204 Z M111.736625,36.2726531 C111.202926,36.2726531 110.624761,36.4963923 110.002112,36.9438776 C109.379463,37.3913628 108.797254,37.9486769 108.255469,38.6158367 C107.713683,39.2829965 107.264898,40.0070981 106.909098,40.7881633 C106.553299,41.5692284 106.375402,42.301466 106.375402,42.984898 C106.375402,43.3428861 106.468393,43.6317132 106.654379,43.8513878 C106.840366,44.0710623 107.078909,44.180898 107.370018,44.180898 C107.596436,44.180898 107.891583,44.0873343 108.255469,43.9002041 C108.619354,43.7130739 108.999407,43.4527228 109.395638,43.1191429 C109.79187,42.785563 110.192138,42.3950363 110.596455,41.947551 C111.000773,41.5000658 111.36061,41.0241114 111.675978,40.5196735 C111.991345,40.0152356 112.250105,39.4904653 112.452263,38.9453469 C112.654422,38.4002286 112.7555,37.8591864 112.7555,37.3222041 C112.7555,37.0455768 112.678681,36.8014977 112.52504,36.5899592 C112.3714,36.3784207 112.108597,36.2726531 111.736625,36.2726531 Z M123.138321,36.9560816 C123.138321,36.728271 123.077675,36.5574155 122.956379,36.4435102 C122.835084,36.3296049 122.685489,36.2726531 122.507589,36.2726531 C122.167963,36.2726531 121.800039,36.4068966 121.403808,36.6753878 C121.007577,36.9438789 120.615395,37.2774538 120.22725,37.6761224 C119.839105,38.0747911 119.487354,38.5019297 119.171987,38.957551 C118.856619,39.4131723 118.618075,39.819971 118.456348,40.1779592 C118.812148,40.1128704 119.25689,39.9867628 119.790589,39.7996327 C120.324288,39.6125025 120.837764,39.3806272 121.331031,39.104 C121.824299,38.8273728 122.248826,38.5060018 122.604625,38.1398776 C122.960424,37.7737533 123.138321,37.3791586 123.138321,36.9560816 Z M127.068268,38.2497143 C126.825677,38.656519 126.522444,39.1039976 126.158558,39.5921633 C125.794672,40.080329 125.382275,40.5644194 124.921353,41.044449 C124.460431,41.5244786 123.967171,41.9882291 123.441558,42.4357143 C122.915945,42.8831995 122.370125,43.2818622 121.80408,43.6317143 C121.238036,43.9815664 120.667957,44.2581895 120.093826,44.4615918 C119.519695,44.6649942 118.957702,44.7666939 118.40783,44.7666939 C117.728577,44.7666939 117.202972,44.5917705 116.831,44.2419184 C116.459028,43.8920663 116.273045,43.3917039 116.273045,42.7408163 C116.273045,42.02484 116.48733,41.2722624 116.915906,40.4830612 C117.344483,39.69386 117.890303,38.9656904 118.553384,38.2985306 C119.216465,37.6313708 119.944225,37.0781246 120.736688,36.6387755 C121.52915,36.1994264 122.289255,35.9797551 123.017027,35.9797551 C123.421344,35.9797551 123.736707,36.0651828 123.963125,36.2360408 C124.189543,36.4068988 124.30275,36.655046 124.30275,36.9804898 C124.30275,37.3710224 124.092508,37.7493451 123.672018,38.1154694 C123.251528,38.4815937 122.738052,38.8151686 122.131576,39.1162041 C121.5251,39.4172396 120.874158,39.6857267 120.178732,39.9216735 C119.483306,40.1576202 118.868753,40.3325436 118.335054,40.446449 C118.157154,40.7718928 118.011602,41.1380116 117.898393,41.5448163 C117.785184,41.9516211 117.72858,42.3584197 117.72858,42.7652245 C117.72858,42.9604908 117.748796,43.1516861 117.789228,43.3388163 C117.829659,43.5259465 117.894349,43.6968019 117.983299,43.8513878 C118.072249,44.0059736 118.193542,44.1320811 118.347183,44.2297143 C118.500824,44.3273474 118.69085,44.3761633 118.917268,44.3761633 C119.450967,44.3761633 120.07765,44.2012398 120.797335,43.8513878 C121.51702,43.5015357 122.248824,43.0337172 122.992768,42.4479184 C123.736712,41.8621195 124.4483,41.1949697 125.127554,40.446449 C125.806807,39.6979282 126.389015,38.9250108 126.874196,38.1276735 L127.068268,38.2497143 Z M122.531848,44.5714286 C122.887648,43.9693575 123.296002,43.3103437 123.756924,42.5943673 C124.217846,41.878391 124.686847,41.1502214 125.163942,40.4098367 C125.641037,39.6694521 126.110038,38.9372145 126.57096,38.213102 C127.031882,37.4889896 127.448323,36.8096358 127.820295,36.1750204 L129.300089,36.1750204 L126.097911,40.7149388 L126.146429,40.7637551 C126.45371,40.3894947 126.825676,39.9298122 127.262339,39.3846939 C127.699002,38.8395755 128.180133,38.3148052 128.705746,37.8103673 C129.231358,37.3059295 129.793351,36.8747229 130.391741,36.5167347 C130.990131,36.1587465 131.604684,35.9797551 132.23542,35.9797551 C132.623564,35.9797551 132.94297,36.0814548 133.193647,36.2848571 C133.444324,36.4882595 133.569661,36.7852225 133.569661,37.1757551 C133.569661,37.4035658 133.488798,37.6801888 133.327071,38.0056327 C133.165344,38.3310765 132.975318,38.6605834 132.756987,38.9941633 C132.538655,39.3277432 132.316284,39.6491141 132.089866,39.9582857 C131.863448,40.2674573 131.685551,40.5196725 131.55617,40.7149388 L131.604687,40.7637551 C131.944314,40.2755894 132.352669,39.7548871 132.829763,39.2016327 C133.306858,38.6483782 133.81629,38.1317439 134.358076,37.6517143 C134.899861,37.1716847 135.457811,36.773022 136.031942,36.4557143 C136.606073,36.1384066 137.159979,35.9797551 137.693679,35.9797551 C138.162687,35.9797551 138.514438,36.0936587 138.748942,36.3214694 C138.983446,36.5492801 139.100696,36.866583 139.100696,37.2733878 C139.100696,37.550015 139.007705,37.8754539 138.821719,38.2497143 C138.635733,38.6239747 138.401232,39.0185694 138.11821,39.4335102 C137.835188,39.8484511 137.531954,40.2674537 137.2085,40.6905306 C136.885046,41.1136076 136.581812,41.5204062 136.29879,41.9109388 C136.015768,42.3014713 135.781267,42.6635221 135.595281,42.997102 C135.409295,43.3306819 135.316304,43.611373 135.316304,43.8391837 C135.316304,44.03445 135.37695,44.1890334 135.498246,44.3029388 C135.619541,44.4168441 135.769136,44.4737959 135.947036,44.4737959 C136.335181,44.4737959 136.792052,44.3192124 137.317665,44.0100408 C137.843278,43.7008692 138.409314,43.2696626 139.01579,42.7164082 C139.622266,42.1631537 140.257035,41.5000719 140.920116,40.7271429 C141.583197,39.9542138 142.254354,39.1040046 142.933607,38.1764898 L143.127679,38.2741224 C142.464598,39.1853651 141.801527,40.0355743 141.138446,40.8247755 C140.475366,41.6139767 139.832511,42.3014665 139.209862,42.8872653 C138.587213,43.4730642 137.988832,43.9327466 137.414701,44.2663265 C136.84057,44.5999064 136.310922,44.7666939 135.825741,44.7666939 C135.324387,44.7666939 134.952421,44.6243143 134.70983,44.339551 C134.46724,44.0547877 134.345946,43.7008729 134.345946,43.2777959 C134.345946,42.9686243 134.438938,42.6228454 134.624924,42.240449 C134.81091,41.8580525 135.045411,41.4634578 135.328433,41.0566531 C135.611455,40.6498483 135.914689,40.2430497 136.238143,39.8362449 C136.561597,39.4294401 136.86483,39.0389134 137.147853,38.6646531 C137.430875,38.2903927 137.665376,37.9486818 137.851362,37.6395102 C138.037348,37.3303386 138.130339,37.0781234 138.130339,36.8828571 C138.130339,36.6550465 138.069693,36.496395 137.948397,36.406898 C137.827102,36.3174009 137.677507,36.2726531 137.499607,36.2726531 C137.176153,36.2726531 136.7961,36.3824887 136.359437,36.6021633 C135.922775,36.8218378 135.465903,37.1310048 134.988808,37.5296735 C134.511713,37.9283421 134.022497,38.3920926 133.521143,38.9209388 C133.019789,39.449785 132.530572,40.0193031 132.053478,40.6295102 C131.576383,41.2397173 131.127597,41.8824592 130.707107,42.5577551 C130.286617,43.233051 129.922737,43.9042688 129.615455,44.5714286 L128.062884,44.5714286 C128.51572,43.7578191 129.004936,42.9442218 129.530549,42.1306122 C130.056162,41.3170027 130.545379,40.5644252 130.998214,39.8728571 C131.45105,39.1812891 131.831103,38.5792271 132.138384,38.0666531 C132.445665,37.5540791 132.599304,37.1757563 132.599304,36.9316735 C132.599304,36.4923243 132.372889,36.2726531 131.920054,36.2726531 C131.515736,36.2726531 131.062907,36.4231686 130.561554,36.7242041 C130.0602,37.0252396 129.550767,37.4157663 129.033241,37.8957959 C128.515715,38.3758255 128.006282,38.9209357 127.504929,39.5311429 C127.003575,40.14135 126.53053,40.755616 126.085781,41.3739592 C125.641032,41.9923024 125.24885,42.5821605 124.909223,43.143551 C124.569597,43.7049416 124.302751,44.180896 124.108679,44.5714286 L122.531848,44.5714286 Z M147.39725,36.9560816 C147.39725,36.728271 147.336603,36.5574155 147.215308,36.4435102 C147.094013,36.3296049 146.944418,36.2726531 146.766518,36.2726531 C146.426891,36.2726531 146.058968,36.4068966 145.662737,36.6753878 C145.266505,36.9438789 144.874323,37.2774538 144.486179,37.6761224 C144.098034,38.0747911 143.746283,38.5019297 143.430915,38.957551 C143.115548,39.4131723 142.877004,39.819971 142.715277,40.1779592 C143.071076,40.1128704 143.515819,39.9867628 144.049518,39.7996327 C144.583217,39.6125025 145.096692,39.3806272 145.58996,39.104 C146.083227,38.8273728 146.507754,38.5060018 146.863554,38.1398776 C147.219353,37.7737533 147.39725,37.3791586 147.39725,36.9560816 Z M151.327196,38.2497143 C151.084606,38.656519 150.781372,39.1039976 150.417487,39.5921633 C150.053601,40.080329 149.641203,40.5644194 149.180281,41.044449 C148.719359,41.5244786 148.226099,41.9882291 147.700487,42.4357143 C147.174874,42.8831995 146.629053,43.2818622 146.063009,43.6317143 C145.496964,43.9815664 144.926885,44.2581895 144.352754,44.4615918 C143.778624,44.6649942 143.216631,44.7666939 142.666759,44.7666939 C141.987506,44.7666939 141.461901,44.5917705 141.089929,44.2419184 C140.717956,43.8920663 140.531973,43.3917039 140.531973,42.7408163 C140.531973,42.02484 140.746258,41.2722624 141.174835,40.4830612 C141.603411,39.69386 142.149232,38.9656904 142.812313,38.2985306 C143.475393,37.6313708 144.203154,37.0781246 144.995616,36.6387755 C145.788078,36.1994264 146.548184,35.9797551 147.275955,35.9797551 C147.680273,35.9797551 147.995636,36.0651828 148.222054,36.2360408 C148.448471,36.4068988 148.561679,36.655046 148.561679,36.9804898 C148.561679,37.3710224 148.351437,37.7493451 147.930946,38.1154694 C147.510456,38.4815937 146.996981,38.8151686 146.390504,39.1162041 C145.784028,39.4172396 145.133087,39.6857267 144.437661,39.9216735 C143.742235,40.1576202 143.127681,40.3325436 142.593982,40.446449 C142.416082,40.7718928 142.27053,41.1380116 142.157321,41.5448163 C142.044113,41.9516211 141.987509,42.3584197 141.987509,42.7652245 C141.987509,42.9604908 142.007725,43.1516861 142.048156,43.3388163 C142.088588,43.5259465 142.153278,43.6968019 142.242228,43.8513878 C142.331178,44.0059736 142.452471,44.1320811 142.606112,44.2297143 C142.759752,44.3273474 142.949779,44.3761633 143.176196,44.3761633 C143.709896,44.3761633 144.336578,44.2012398 145.056263,43.8513878 C145.775949,43.5015357 146.507752,43.0337172 147.251696,42.4479184 C147.995641,41.8621195 148.707229,41.1949697 149.386482,40.446449 C150.065736,39.6979282 150.647944,38.9250108 151.133125,38.1276735 L151.327196,38.2497143 Z M153.534759,36.1750204 L150.33258,40.6417143 L150.381098,40.6905306 C150.720725,40.2837259 151.11695,39.8077714 151.569786,39.2626531 C152.022621,38.7175347 152.507795,38.2009004 153.025321,37.7127347 C153.542848,37.224569 154.080582,36.8137023 154.63854,36.4801224 C155.196498,36.1465425 155.750405,35.9797551 156.300277,35.9797551 C156.785458,35.9797551 157.161467,36.1139987 157.428317,36.3824898 C157.695167,36.6509809 157.828589,36.9967598 157.828589,37.4198367 C157.828589,37.6801918 157.735598,37.9893588 157.549612,38.3473469 C157.363626,38.7053351 157.133168,39.0877259 156.858232,39.4945306 C156.583296,39.9013354 156.284106,40.31627 155.960652,40.7393469 C155.637198,41.1624239 155.338007,41.5651546 155.063071,41.947551 C154.788136,42.3299475 154.557678,42.6797943 154.371692,42.997102 C154.185706,43.3144097 154.092714,43.5788289 154.092714,43.7903673 C154.092714,44.2459887 154.319129,44.4737959 154.771964,44.4737959 C155.289491,44.4737959 155.839354,44.2988725 156.421571,43.9490204 C157.003789,43.5991683 157.699204,43.0093103 158.507839,42.1794286 C158.831293,41.8539848 159.158786,41.496002 159.490326,41.1054694 C159.821866,40.7149368 160.141272,40.3284781 160.448554,39.9460816 C160.755835,39.5636852 161.03481,39.2016344 161.285487,38.8599184 C161.536163,38.5182024 161.734276,38.2334433 161.87983,38.0056327 L162.049643,38.1032653 C161.726189,38.591431 161.309748,39.1731531 160.800308,39.848449 C160.290868,40.5237449 159.736961,41.1868267 159.138571,41.8377143 C158.782772,42.2282469 158.418892,42.6025016 158.04692,42.9604898 C157.674948,43.318478 157.302981,43.6317129 156.931009,43.9002041 C156.559037,44.1686952 156.191113,44.3802305 155.827228,44.5348163 C155.463342,44.6894021 155.103505,44.7666939 154.747705,44.7666939 C154.278697,44.7666939 153.890558,44.6365183 153.583277,44.3761633 C153.275995,44.1158082 153.122357,43.7578254 153.122357,43.3022041 C153.122357,42.8140384 153.316427,42.2811321 153.704571,41.7034694 C154.092716,41.1258066 154.521286,40.5440846 154.990295,39.9582857 C155.459303,39.3724869 155.887873,38.8111047 156.276018,38.2741224 C156.664163,37.7371402 156.858232,37.2652537 156.858232,36.858449 C156.858232,36.6631827 156.793542,36.5167352 156.664161,36.419102 C156.534779,36.3214689 156.364968,36.2726531 156.154723,36.2726531 C155.750406,36.2726531 155.297577,36.4231686 154.796223,36.7242041 C154.29487,37.0252396 153.781394,37.4239023 153.255781,37.9202041 C152.730169,38.4165059 152.204564,38.9697521 151.678951,39.5799592 C151.153338,40.1901663 150.664121,40.8003643 150.211286,41.4105714 C149.75845,42.0207786 149.354139,42.6065686 148.998339,43.1679592 C148.64254,43.7293497 148.375694,44.1971682 148.197795,44.5714286 L146.693741,44.5714286 C147.114231,43.8554522 147.563017,43.1272826 148.040112,42.386898 C148.517206,41.6465133 148.990251,40.9142757 149.459259,40.1901633 C149.928267,39.4660508 150.377053,38.7663571 150.805629,38.0910612 C151.234206,37.4157653 151.618302,36.8014994 151.957929,36.2482449 L153.534759,36.1750204 Z M166.149402,33.3436735 L164.232946,36.1750204 L167.435125,36.1750204 L167.289571,36.4679184 L164.038875,36.4679184 C163.391967,37.5256107 162.813802,38.4409077 162.304362,39.2138367 C161.794922,39.9867658 161.366351,40.6539156 161.018638,41.2153061 C160.670925,41.7766967 160.408123,42.2485831 160.230223,42.6309796 C160.052324,43.0133761 159.963375,43.3510189 159.963375,43.6439184 C159.963375,43.95309 160.068496,44.1686933 160.278741,44.2907347 C160.488986,44.4127761 160.731573,44.4737959 161.006509,44.4737959 C161.588726,44.4737959 162.231581,44.2500567 162.935094,43.8025714 C163.638606,43.3550862 164.338065,42.805908 165.033491,42.1550204 C165.728917,41.5041328 166.391988,40.8125751 167.022723,40.0803265 C167.653459,39.348078 168.18715,38.6890642 168.623813,38.1032653 L168.769366,38.200898 C168.219494,38.9006021 167.61707,39.6369077 166.962076,40.4098367 C166.307082,41.1827658 165.631881,41.8905954 164.936455,42.5333469 C164.241029,43.1760985 163.54157,43.7090047 162.838058,44.1320816 C162.134546,44.5551586 161.467432,44.7666939 160.836696,44.7666939 C160.335343,44.7666939 159.902729,44.6121104 159.538844,44.3029388 C159.174958,43.9937672 158.993018,43.5625606 158.993018,43.0093061 C158.993018,42.6350457 159.098139,42.2160431 159.308384,41.7522857 C159.518629,41.2885283 159.793561,40.788166 160.133187,40.2511837 C160.472814,39.7142014 160.85691,39.1284113 161.285487,38.4937959 C161.714063,37.8591805 162.154763,37.1838947 162.607598,36.4679184 L161.297616,36.4679184 L161.44317,36.1750204 L162.80167,36.1750204 L164.693866,33.3436735 L166.149402,33.3436735 Z" id="Management"></path>
        </g>
    </g>
</svg>