<?xml version="1.0" encoding="UTF-8"?>
<svg width="201px" height="43px" viewBox="0 0 201 43" version="1.1" xmlns="http://www.w3.org/2000/svg" xmlns:xlink="http://www.w3.org/1999/xlink">
    <!-- Generator: Sketch 41.2 (35397) - http://www.bohemiancoding.com/sketch -->
    <title>Group</title>
    <desc>Created with Sketch.</desc>
    <defs></defs>
    <g id="Page-1" stroke="none" stroke-width="1" fill="none" fill-rule="evenodd">
        <g id="Group" fill="#000000">
            <g id="logo">
                <path d="M106.420021,16.8670244 L106.411916,16.8898537 C106.102758,17.7234146 105.641337,18.4650732 105.032863,19.1078049 L105.033442,19.1066341 C104.427284,19.74 103.660179,20.2691707 102.747758,20.6683902 L102.745442,20.6683902 C101.851547,21.066439 100.794389,21.2707317 99.6017579,21.2707317 C98.5978632,21.2707317 97.7664947,21.143122 97.1423895,20.9083902 L97.1366,20.9060488 L97.1400737,20.9083902 C96.5009158,20.6730732 95.9868105,20.3710244 95.6151263,20.0250732 L95.6133895,20.0239024 C95.2527053,19.6884878 95.0141789,19.3284878 94.8624947,18.8976585 L94.8624947,18.8988293 C94.6998105,18.4276098 94.6181789,17.9499512 94.6181789,17.4787317 C94.6170211,16.5321951 94.7663895,15.7817561 95.0298105,15.2502439 C95.3001789,14.7245854 95.6527579,14.3142439 96.0887053,14.0250732 C96.5611263,13.7101463 97.1146,13.4865366 97.7404421,13.3665366 C98.4687579,13.2266341 99.2109684,13.1306341 99.9444947,13.0814634 C100.669337,13.031122 101.452653,12.9913171 102.350021,12.9614634 C103.209758,12.935122 104.030126,12.8678049 104.786232,12.7524878 C105.558547,12.6365854 106.259074,12.4650732 106.876811,12.245561 L106.878547,12.245561 L106.881442,12.2449756 C106.883758,12.2438049 106.884916,12.2438049 106.887232,12.2414634 L106.887232,14.2662439 C106.887232,15.1612683 106.728021,16.0428293 106.411916,16.8886829 L106.420021,16.8670244 Z M107.372968,6.00907317 L107.386284,6.09278049 L107.372968,6.00907317 Z M108.930337,4.11365854 L108.908916,4.07034146 L108.929758,4.1124878 C108.493232,3.23209756 107.903284,2.50039024 107.177863,1.94370732 L107.179021,1.94370732 C106.460547,1.39170732 105.618179,1.00126829 104.682021,0.785268293 C103.8026,0.583317073 102.869916,0.479121951 101.906547,0.479121951 C100.529232,0.479121951 99.3007053,0.672292683 98.2522316,1.06214634 L98.2516526,1.06214634 C97.2008632,1.452 96.2872842,2.00634146 95.5416,2.71287805 C94.7970737,3.41590244 94.2169684,4.27112195 93.8203895,5.23990244 L93.8203895,5.24107317 C93.4365474,6.1782439 93.2113368,7.20146341 93.1522842,8.27268293 L93.0961263,9.31229268 L95.8304947,9.31229268 L95.8959158,8.36107317 L95.8930211,8.39385366 C96.0047579,6.71678049 96.5640211,5.46058537 97.5441789,4.59131707 C98.5289684,3.71912195 99.9809684,3.2502439 101.906547,3.2502439 C103.128126,3.2502439 104.083389,3.41531707 104.721389,3.70565854 C105.371547,4.00126829 105.845705,4.36712195 106.147337,4.77804878 C106.4646,5.21941463 106.656232,5.6777561 106.739021,6.19580488 L106.752337,6.2777561 L106.739021,6.19580488 C106.8386,6.83092683 106.887232,7.42682927 106.887232,7.96419512 C106.889547,8.55892683 106.774916,8.95873171 106.620337,9.16595122 L106.619758,9.16712195 C106.464021,9.38312195 106.161232,9.58741463 105.688232,9.7337561 L105.688232,9.73492683 C105.124337,9.90878049 104.358968,10.0334634 103.432653,10.0931707 L103.430337,10.0931707 C102.428179,10.1604878 101.225126,10.2336585 99.8263895,10.3150244 L99.8246526,10.3150244 C98.9278632,10.3718049 98.0276,10.4929756 97.1458632,10.6726829 L97.1447053,10.6726829 C96.1819158,10.8740488 95.3042316,11.2305366 94.5411789,11.7403902 C93.7393368,12.2765854 93.0880211,13.0176585 92.6098105,13.9279024 C92.1171263,14.8580488 91.8809158,16.0539512 91.8803368,17.4787317 C91.8803368,18.546439 92.0656,19.5046829 92.4448105,20.3359024 C92.8240211,21.1682927 93.3960211,21.8701463 94.1457579,22.4244878 L94.1590737,22.4361951 L94.1451789,22.4244878 C95.5653368,23.4810732 97.4388105,24.0002927 99.6804947,24.0002927 C100.827968,24.0002927 101.913495,23.8457561 102.905811,23.5349268 C103.887126,23.2293659 104.782179,22.805561 105.564916,22.2699512 L105.571284,22.2658537 C106.060495,21.9280976 106.497021,21.5522927 106.887232,21.1519024 L106.887232,23.6853659 L109.628547,23.6853659 L109.628547,7.3595122 L109.628547,7.35482927 C109.596126,6.09043902 109.3686,5.00107317 108.930337,4.11365854 L108.930337,4.11365854 Z" id="Fill-1"></path>
                <polygon id="Fill-4" points="36.8943474 1.14327805 36.8943474 23.6857171 39.6379789 23.6857171 39.6379789 0.811960976 36.8943474 0.811960976"></polygon>
                <path d="M58.5545053,14.3815024 C58.0919263,13.6451122 57.4828737,13.028722 56.7464526,12.5545756 C56.0494,12.1026732 55.2579789,11.7485268 54.3895579,11.4933073 L54.3965053,11.4956488 L54.3884,11.4921366 C53.5987158,11.2650146 52.8090316,11.0419902 52.0077684,10.827161 L52.0100842,10.827161 L52.0066105,10.827161 C50.9268737,10.5409171 49.9774,10.294478 49.1622421,10.0814049 L49.0817684,10.0597463 L49.0806105,10.0597463 C48.2915053,9.85720976 47.5556632,9.61838049 46.8898737,9.34325854 C46.3520316,9.11086829 45.9542947,8.80472195 45.6474526,8.39496585 C45.3898211,8.05545366 45.2265579,7.47125854 45.2282947,6.63886829 C45.2265579,6.6371122 45.2340842,6.4416 45.3649263,5.84803902 L45.3660842,5.84686829 C45.4291895,5.54247805 45.6132947,5.17896585 45.9247684,4.78794146 C46.2090316,4.43379512 46.7075053,4.0691122 47.4045579,3.73955122 C48.0662947,3.42520976 49.0684526,3.2478439 50.3670316,3.25018537 C51.2591895,3.25018537 52.0795579,3.3473561 52.8015053,3.53642927 L52.8038211,3.53877073 L52.8009263,3.53642927 C53.4811895,3.71906341 54.0601368,4.00472195 54.5232947,4.37994146 L54.5238737,4.37994146 C54.9806632,4.75047805 55.3390316,5.22286829 55.5914526,5.7953561 L55.5775579,5.76550244 L55.5914526,5.79418537 C55.8444526,6.37486829 55.9834,7.13525854 55.9828211,8.04667317 L55.9828211,9.02774634 L58.7218211,9.02774634 L58.7218211,8.04667317 C58.7218211,6.75945366 58.5296105,5.62501463 58.1359263,4.65213659 C57.7445579,3.67925854 57.1505579,2.87086829 56.3637684,2.25096585 C54.8573474,1.06325854 52.8292947,0.479063415 50.3670316,0.479063415 C49.0012947,0.479063415 47.8080842,0.658770732 46.8186632,1.01877073 L46.8186632,1.01877073 C45.8396632,1.37994146 45.0106105,1.86228293 44.3569789,2.4593561 L44.3535053,2.46052683 C43.6923474,3.06872195 43.2031368,3.76003902 42.9119263,4.51574634 L42.9246632,4.48764878 L42.9130842,4.51516098 C42.6328737,5.2398439 42.4892947,5.95223415 42.4892947,6.63886829 C42.4892947,7.91964878 42.7260842,8.99672195 43.2205053,9.83438049 L43.2245579,9.84023415 L43.2216632,9.83555122 C43.7305579,10.6866732 44.5156105,11.3481366 45.5299263,11.7941854 C46.1436105,12.0763317 46.8551368,12.3350634 47.6390316,12.5604293 L47.6309263,12.5580878 L47.6378737,12.5604293 C48.3934,12.7799415 49.2739789,13.0129171 50.2581895,13.2552585 C51.1289263,13.4689171 51.9898211,13.6843317 52.8321895,13.894478 C53.5929263,14.086478 54.2685579,14.3457951 54.8376632,14.662478 L54.8382421,14.6636488 C55.3633474,14.9586732 55.7923474,15.3315512 56.1154,15.7752585 L56.1148211,15.7740878 C56.3863474,16.1469659 56.5409263,16.683161 56.5409263,17.3949659 C56.5403474,18.0868683 56.3828737,18.6505756 56.0881895,19.0966244 L56.0870316,19.0977951 C55.7558737,19.5900878 55.3355579,19.9963317 54.8278211,20.3059902 C54.2922947,20.632039 53.6780316,20.8802341 52.9942947,21.0318439 C52.2891368,21.1898927 51.5903474,21.2677463 50.9228211,21.2677463 C48.7274526,21.2689171 47.0832421,20.780722 46.0104526,19.8739902 L46.0353474,19.894478 L46.0104526,19.8739902 C45.4957684,19.4373073 45.1061368,18.8630634 44.8392421,18.1395512 C44.5723474,17.4148683 44.4328211,16.5379902 44.4328211,15.5124293 L44.4328211,14.5278439 L41.6955579,14.5278439 L41.6955579,15.5124293 C41.6955579,16.9331122 41.8941368,18.188722 42.2970842,19.2693073 C42.6988737,20.3493073 43.3079263,21.2536976 44.1184526,21.9549659 L44.1080316,21.9456 L44.1178737,21.9549659 C45.7007158,23.3299902 48.0014526,23.996722 50.9228211,23.996722 C51.8630316,23.996722 52.8246632,23.8866732 53.7758737,23.6718439 C54.7670316,23.4488195 55.6725053,23.0741854 56.4702947,22.5561366 L56.4766632,22.5514537 L56.4685579,22.5573073 C57.2929789,22.0257951 57.9709263,21.3233561 58.4804,20.4798439 L58.4595579,20.5132098 L58.4804,20.4798439 C59.0159263,19.5971122 59.2787684,18.524722 59.2776105,17.3141854 C59.2776105,16.1627707 59.0414,15.1729171 58.5568211,14.3861854 L58.5545053,14.3815024 Z" id="Fill-6"></path>
                <path d="M76.7071105,7.20341939 L76.7132108,7.1844878 L76.7071105,7.20341939 Z" id="Fill-8"></path>
                <path d="M89.4821632,6.05707317 C89.2401632,5.004 88.8186895,4.07678049 88.2304789,3.30643902 L88.2374263,3.31580488 L88.2299,3.30643902 C87.6272158,2.52321951 86.8300053,1.90565854 85.8741632,1.46663415 L85.8730053,1.46663415 C84.9131105,1.02878049 83.7378474,0.815121951 82.3726895,0.81395122 C80.5877947,0.81395122 78.9887421,1.32614634 77.6565842,2.3382439 C76.9635842,2.86273171 76.3881105,3.48907317 75.9261105,4.19912195 C75.5023211,3.44692683 74.9621632,2.79307317 74.3033211,2.25804878 C73.1193737,1.29512195 71.6459526,0.809268293 69.9704789,0.811609756 C69.8743737,0.811609756 69.7765316,0.812780488 69.6763737,0.816292683 L69.6746368,0.816292683 C67.8260579,0.816292683 66.0874789,1.34897561 64.7842684,2.33473171 C63.4231632,3.36380488 62.7064263,4.51346341 62.1552684,5.56185366 L62.1489,5.57356098 L62.1465842,5.58292683 C61.8073211,6.34507317 61.7146895,6.77414634 61.5942684,7.34663415 L61.5942684,7.34546341 C61.4547421,7.99639024 61.3331632,8.64907317 61.3354789,9.67229268 L61.3354789,23.6853659 L64.0785316,23.6853659 L64.0785316,9.83443902 C64.0785316,8.98507317 64.2082158,8.16673171 64.4641105,7.404 L64.4652684,7.39580488 C64.7130579,6.64829268 65.0801105,5.98273171 65.5583211,5.40790244 L65.5600579,5.40439024 C66.0249526,4.84419512 66.5946368,4.39814634 67.2610053,4.0715122 C67.9146368,3.75131707 68.6649526,3.5862439 69.5015316,3.5862439 C70.0283737,3.5862439 70.5326368,3.63131707 70.9703211,3.71092683 C71.4074263,3.79229268 71.7791105,3.90878049 72.0297947,4.04165854 L72.0245842,4.03931707 L72.0303737,4.04282927 C72.5936895,4.3355122 73.0226895,4.72887805 73.3249,5.21473171 C73.6496895,5.7462439 73.8812684,6.38429268 74.0045842,7.10780488 C74.1389,7.89921951 74.2095316,8.76321951 74.2095316,9.67463415 L74.2095316,23.6853659 L76.9502684,23.6853659 L76.9502684,9.83678049 C76.9502684,8.98390244 77.0816895,8.16204878 77.3358474,7.39580488 L77.3346895,7.39697561 C77.5871105,6.64829268 77.9541632,5.97921951 78.4317947,5.40790244 L78.4485842,5.3862439 L78.4317947,5.40673171 C78.8932158,4.85004878 79.4652158,4.40282927 80.1344789,4.07443902 C80.7898474,3.75365854 81.5407421,3.58741463 82.3726895,3.58741463 C83.3563211,3.5862439 84.1581632,3.72965854 84.7452158,3.98780488 C85.3195316,4.24478049 85.7728474,4.59834146 86.1034263,5.04321951 L86.0796895,5.01219512 L86.1045842,5.04439024 C86.4484789,5.5062439 86.6985842,6.08926829 86.8421632,6.78 L86.8427421,6.7817561 C87.0002158,7.52985366 87.0806895,8.39619512 87.0806895,9.35209756 L87.0806895,23.6853659 L89.8225842,23.6853659 L89.8225842,9.35209756 C89.8225842,8.17082927 89.7102684,7.06331707 89.4821632,6.05941463 L89.4821632,6.05707317 Z" id="Path"></path>
                <path d="M28.7658684,2.33233171 L28.7664474,2.33116098 C27.4047632,3.36023415 26.6868684,4.51047805 26.1386053,5.5553561 L26.1333947,5.56530732 L26.1293421,5.5758439 C25.7848684,6.35086829 25.6916579,6.77994146 25.5712368,7.34774634 L25.5712368,7.34891707 C25.4351842,7.99164878 25.3159211,8.63964878 25.3165,9.66755122 L25.3165,23.6858927 L28.0589737,23.6858927 L28.0589737,9.8291122 C28.0589737,8.97740488 28.1898158,8.15964878 28.4451316,7.39164878 L28.4266053,7.44842927 L28.4451316,7.39047805 C28.6935,6.64355122 29.0617105,5.97623415 29.5387632,5.40199024 C30.0036579,4.84179512 30.5745,4.39574634 31.2443421,4.06794146 L31.2449211,4.06794146 C31.8968158,3.74540488 32.6477105,3.5820878 33.4819737,3.5820878 L34.8372895,3.5820878 L34.8372895,0.81155122 L33.6805526,0.81155122 C31.8134474,0.81155122 30.0719737,1.34247805 28.7658684,2.33233171" id="Fill-10"></path>
                <path d="M4.04753684,11.9474341 C4.56511579,12.2137756 5.06185263,12.5292878 5.54237895,12.8676293 C5.53137895,12.6668488 5.52269474,12.4608 5.52269474,12.2494829 C5.52327368,10.2955317 5.94416842,8.30119024 6.91969474,6.76811707 C7.38227368,6.03406829 8.74627368,4.1808 11.6265368,4.1808 C14.5056421,4.1808 15.8673263,6.03406829 16.3339579,6.76811707 C17.3094842,8.30119024 17.7303789,10.2955317 17.7321158,12.2494829 C17.7321158,12.4584585 17.7211158,12.6645073 17.7124316,12.8676293 C18.1918,12.5292878 18.6868,12.2137756 19.2066947,11.9474341 C20.7756421,11.1331902 21.8698526,10.1878244 22.6415895,9.30626341 L22.8812737,9.01709268 C22.2583263,6.36245854 20.8862211,4.25865366 18.9710632,2.79758049 C17.9972737,2.05767805 15.3335368,0.470165854 11.6276947,0.470165854 C7.91953684,0.470165854 5.25637895,2.05767805 4.28258947,2.79758049 C2.36974737,4.25865366 0.997063158,6.36245854 0.372957895,9.01709268 L0.614378947,9.30509268 C1.38495789,10.1854829 2.47916842,11.1331902 4.04753684,11.9474341" id="Fill-12"></path>
                <path d="M4.47891053,15.5236098 C3.44491053,14.7234146 1.2617,13.3454634 0.00943684211,11.928878 C-0.109826316,15.1840976 0.877278947,17.9827317 2.37327895,19.8945366 C3.80443684,21.7238049 5.80412105,22.9811707 8.15406842,23.5846829 C8.15522632,23.4921951 8.28201579,21.3087805 7.82001579,19.9753171 C7.17912105,18.1349268 5.98301579,16.6609756 4.47891053,15.5236098" id="Fill-14"></path>
                <path d="M13.3536526,20.0442146 C13.0942842,20.1320195 12.3607579,20.3128976 11.6278105,20.3128976 C10.8884947,20.3128976 10.1503368,20.129678 9.88865263,20.0407024 C9.90775789,20.3175805 9.98765263,21.1774829 9.93381053,22.0139707 C9.87417895,22.9587512 9.67502105,23.8695805 9.67502105,23.8695805 C9.95233684,23.9052878 10.7889158,23.9837268 11.6266526,23.9837268 C12.4609158,23.9837268 13.2969158,23.9052878 13.5742316,23.8695805 C13.5620737,23.8168976 13.3687053,22.9277268 13.3084947,22.0128 C13.2558105,21.1523122 13.3333895,20.2707512 13.3536526,20.0442146" id="Fill-17"></path>
                <path d="M18.7796053,15.5236098 C17.2760789,16.6609756 16.0765,18.1349268 15.4385,19.9753171 C14.9765,21.3087805 15.1021316,23.4921951 15.1044474,23.5846829 C17.4555526,22.9811707 19.4540789,21.7238049 20.8835,19.8945366 C22.3818158,17.9827317 23.3683421,15.1840976 23.2496579,11.928878 C21.9950789,13.3454634 19.8118684,14.7234146 18.7796053,15.5236098" id="Fill-19"></path>
            </g>
            <path d="M2.829,30.684 L0,30.684 L0,26.659 L10.718,26.659 L10.718,30.684 L7.889,30.684 L7.889,42 L2.829,42 L2.829,30.684 Z M5.658,40.16 L5.658,29.051 L8.947,29.051 L8.947,28.499 L1.771,28.499 L1.771,29.051 L5.06,29.051 L5.06,40.16 L5.658,40.16 Z M16.077,26.659 L19.757,26.659 L25.576,42 L20.746,42 L20.24,40.62 L15.594,40.62 L15.088,42 L10.258,42 L16.077,26.659 Z M18.952,37.239 L17.917,34.548 L16.882,37.239 L18.952,37.239 Z M13.685,40.16 L14.122,39.01 L21.712,39.01 L22.149,40.16 L22.793,40.16 L18.354,28.499 L17.48,28.499 L13.041,40.16 L13.685,40.16 Z M17.917,29.051 L21.505,38.458 L14.329,38.458 L17.917,29.051 Z M27.439,39.999 C27.6536677,40.0450002 27.8836654,40.0833332 28.129,40.114 C28.3436677,40.1446668 28.5698321,40.1714999 28.8075,40.1945 C29.0451679,40.2175001 29.2866654,40.229 29.532,40.229 C29.9613355,40.229 30.3791646,40.1791672 30.7855,40.0795 C31.1918354,39.9798328 31.5559984,39.8150012 31.878,39.585 C32.2000016,39.3549989 32.4568324,39.0598351 32.6485,38.6995 C32.8401676,38.3391649 32.936,37.8983359 32.936,37.377 C32.936,36.9323311 32.8248344,36.5106687 32.6025,36.112 C32.3801656,35.7133313 32.0965017,35.3300018 31.7515,34.962 C31.4064983,34.5939982 31.038502,34.241335 30.6475,33.904 C30.256498,33.566665 29.8885017,33.2255017 29.5435,32.8805 C29.1984983,32.5354983 28.9148344,32.1905017 28.6925,31.8455 C28.4701656,31.5004983 28.359,31.1440018 28.359,30.776 C28.359,30.2239972 28.5353316,29.7985015 28.888,29.4995 C29.2406684,29.2004985 29.8079961,29.051 30.59,29.051 C30.7126673,29.051 30.839166,29.0548333 30.9695,29.0625 C31.099834,29.0701667 31.2263327,29.0816666 31.349,29.097 C31.4716673,29.1123334 31.5943327,29.12 31.717,29.12 L31.717,28.522 C31.6096661,28.522 31.4946673,28.5143334 31.372,28.499 C31.2646661,28.4836666 31.145834,28.4721667 31.0155,28.4645 C30.885166,28.4568333 30.7510007,28.453 30.613,28.453 C29.7849959,28.453 29.1026694,28.6408315 28.566,29.0165 C28.0293307,29.3921685 27.761,29.9786627 27.761,30.776 C27.761,31.2053355 27.8721656,31.6078315 28.0945,31.9835 C28.3168344,32.3591685 28.6004983,32.7271649 28.9455,33.0875 C29.2905017,33.4478351 29.658498,33.796665 30.0495,34.134 C30.440502,34.471335 30.8084983,34.8124983 31.1535,35.1575 C31.4985017,35.5025017 31.7821656,35.8589982 32.0045,36.227 C32.2268344,36.5950018 32.338,36.9783313 32.338,37.377 C32.338,38.1130037 32.0888358,38.6726648 31.5905,39.056 C31.0921642,39.4393352 30.4060044,39.631 29.532,39.631 C29.0106641,39.631 28.5353355,39.592667 28.106,39.516 C27.8759988,39.4853332 27.6536677,39.4470002 27.439,39.401 L27.439,39.999 Z M25.507,37.239 C25.844335,37.3463339 26.1969982,37.4306664 26.565,37.492 C26.8716682,37.568667 27.220498,37.6299998 27.6115,37.676 C28.002502,37.7220002 28.3973313,37.745 28.796,37.745 C29.5013369,37.745 29.854,37.4843359 29.854,36.963 C29.854,36.7636657 29.7466677,36.560501 29.532,36.3535 C29.3173323,36.146499 29.0451683,35.9165013 28.7155,35.6635 C28.3858317,35.4104987 28.0331685,35.1306682 27.6575,34.824 C27.2818315,34.5173318 26.9291683,34.1646687 26.5995,33.766 C26.2698317,33.3673313 25.9976677,32.9188358 25.783,32.4205 C25.5683323,31.9221642 25.461,31.3510032 25.461,30.707 C25.461,29.9863297 25.591332,29.3500028 25.852,28.798 C26.112668,28.2459972 26.4729977,27.7860018 26.933,27.418 C27.3930023,27.0499982 27.9334969,26.7701676 28.5545,26.5785 C29.1755031,26.3868324 29.8386631,26.291 30.544,26.291 C30.9120018,26.291 31.2799982,26.3101665 31.648,26.3485 C32.0160018,26.3868335 32.3456652,26.4213332 32.637,26.452 C32.974335,26.4980002 33.3039984,26.5439998 33.626,26.59 L33.626,30.891 C33.5033327,30.8756666 33.3653341,30.8603334 33.212,30.845 C33.0893327,30.8296666 32.9513341,30.8143334 32.798,30.799 C32.6446659,30.7836666 32.4836675,30.776 32.315,30.776 C32.2229995,30.776 32.1080007,30.7798333 31.97,30.7875 C31.8319993,30.7951667 31.7016673,30.8143332 31.579,30.845 C31.4563327,30.8756668 31.3490005,30.929333 31.257,31.006 C31.1649995,31.082667 31.119,31.1899993 31.119,31.328 C31.119,31.4506673 31.222499,31.6039991 31.4295,31.788 C31.636501,31.9720009 31.8894985,32.1866654 32.1885,32.432 C32.4875015,32.6773346 32.8171649,32.9609984 33.1775,33.283 C33.5378351,33.6050016 33.8674985,33.9729979 34.1665,34.387 C34.4655015,34.8010021 34.718499,35.2686641 34.9255,35.79 C35.132501,36.3113359 35.236,36.8939968 35.236,37.538 C35.236,38.21267 35.1286677,38.8451637 34.914,39.4355 C34.6993323,40.0258363 34.3658356,40.5394978 33.9135,40.9765 C33.4611644,41.4135022 32.8823369,41.7584987 32.177,42.0115 C31.4716631,42.2645013 30.6360048,42.391 29.67,42.391 C29.0873304,42.391 28.5468358,42.3641669 28.0485,42.3105 C27.5501642,42.2568331 27.1093352,42.191667 26.726,42.115 C26.2813311,42.0383329 25.8750018,41.9463339 25.507,41.839 L25.507,37.239 Z M36.271,26.659 L41.239,26.659 L41.239,30.201 L44.137,26.659 L50.14,26.659 L44.735,33.674 L50.416,42 L44.505,42 L41.239,37.262 L41.239,42 L36.271,42 L36.271,26.659 Z M39.169,40.16 L39.169,37.055 L41.561,34.088 L45.747,40.16 L46.46,40.16 L41.975,33.605 L46.092,28.499 L45.356,28.499 L39.169,36.135 L39.169,28.499 L38.571,28.499 L38.571,40.16 L39.169,40.16 Z" id="Task"></path>
            <path d="M59.805,26.659 L63.853,26.659 L67.855,32.547 L71.834,26.659 L75.882,26.659 L75.882,42 L70.983,42 L70.983,36.48 L67.855,41.08 L64.704,36.48 L64.704,42 L59.805,42 L59.805,26.659 Z M62.703,40.16 L62.703,29.603 L67.855,37.101 L72.984,29.603 L72.984,40.16 L73.582,40.16 L73.582,28.499 L72.984,28.499 L67.855,36.066 L62.703,28.499 L62.105,28.499 L62.105,40.16 L62.703,40.16 Z M82.046,26.659 L85.726,26.659 L91.545,42 L86.715,42 L86.209,40.62 L81.563,40.62 L81.057,42 L76.227,42 L82.046,26.659 Z M84.921,37.239 L83.886,34.548 L82.851,37.239 L84.921,37.239 Z M79.654,40.16 L80.091,39.01 L87.681,39.01 L88.118,40.16 L88.762,40.16 L84.323,28.499 L83.449,28.499 L79.01,40.16 L79.654,40.16 Z M83.886,29.051 L87.474,38.458 L80.298,38.458 L83.886,29.051 Z M91.89,26.659 L95.915,26.659 L100.147,32.57 L100.147,26.659 L104.954,26.659 L104.954,42 L100.906,42 L96.697,36.112 L96.697,42 L91.89,42 L91.89,26.659 Z M94.627,40.16 L94.627,29.534 L102.217,40.16 L102.815,40.16 L102.815,28.499 L102.217,28.499 L102.217,39.125 L94.627,28.499 L94.029,28.499 L94.029,40.16 L94.627,40.16 Z M111.118,26.659 L114.798,26.659 L120.617,42 L115.787,42 L115.281,40.62 L110.635,40.62 L110.129,42 L105.299,42 L111.118,26.659 Z M113.993,37.239 L112.958,34.548 L111.923,37.239 L113.993,37.239 Z M108.726,40.16 L109.163,39.01 L116.753,39.01 L117.19,40.16 L117.834,40.16 L113.395,28.499 L112.521,28.499 L108.082,40.16 L108.726,40.16 Z M112.958,29.051 L116.546,38.458 L109.37,38.458 L112.958,29.051 Z M130.737,31.88 C130.460999,31.6346654 130.116002,31.446834 129.702,31.3165 C129.287998,31.186166 128.881669,31.121 128.483,31.121 C128.038331,31.121 127.632002,31.2014992 127.264,31.3625 C126.895998,31.5235008 126.577835,31.7458319 126.3095,32.0295 C126.041165,32.3131681 125.830334,32.6543313 125.677,33.053 C125.523666,33.4516687 125.447,33.8809977 125.447,34.341 C125.447,34.8010023 125.531332,35.2303313 125.7,35.629 C125.868668,36.0276687 126.098665,36.3688319 126.39,36.6525 C126.681335,36.9361681 127.022498,37.1584992 127.4135,37.3195 C127.804502,37.4805008 128.222331,37.561 128.667,37.561 C129.188336,37.561 129.663665,37.4498344 130.093,37.2275 C130.522335,37.0051656 130.890332,36.7023352 131.197,36.319 L129.817,36.319 L129.817,33.099 L135.728,33.099 L135.728,38.205 C135.375332,38.8336698 134.953669,39.4048308 134.463,39.9185 C133.972331,40.4321692 133.42417,40.8729982 132.8185,41.241 C132.21283,41.6090018 131.557337,41.8926657 130.852,42.092 C130.146663,42.2913343 129.418337,42.391 128.667,42.391 C127.562994,42.391 126.520338,42.1840021 125.539,41.77 C124.557662,41.3559979 123.702837,40.7886703 122.9745,40.068 C122.246163,39.3473297 121.671169,38.4963382 121.2495,37.515 C120.827831,36.5336618 120.617,35.4756723 120.617,34.341 C120.617,33.2369945 120.816331,32.1943382 121.215,31.213 C121.613669,30.2316618 122.16183,29.376837 122.8595,28.6485 C123.55717,27.920163 124.385162,27.3451688 125.3435,26.9235 C126.301838,26.5018312 127.332994,26.291 128.437,26.291 C129.295671,26.291 130.03933,26.3753325 130.668,26.544 C131.29667,26.7126675 131.825665,26.9043323 132.255,27.119 C132.761003,27.3643346 133.182665,27.6326652 133.52,27.924 L130.737,31.88 Z M130.967,28.913 C130.767666,28.8209995 130.545335,28.7443336 130.3,28.683 C130.085332,28.6216664 129.832335,28.5680002 129.541,28.522 C129.249665,28.4759998 128.927668,28.453 128.575,28.453 C127.762329,28.453 127.003337,28.5986652 126.298,28.89 C125.592663,29.1813348 124.979336,29.5838308 124.458,30.0975 C123.936664,30.6111692 123.526501,31.2283297 123.2275,31.949 C122.928499,32.6696703 122.779,33.4669956 122.779,34.341 C122.779,35.2150044 122.932332,36.0123297 123.239,36.733 C123.545668,37.4536703 123.967331,38.0708308 124.504,38.5845 C125.040669,39.0981692 125.665496,39.5006652 126.3785,39.792 C127.091504,40.0833348 127.854329,40.229 128.667,40.229 C129.725005,40.229 130.683329,39.9798358 131.542,39.4815 C132.400671,38.9831642 133.098331,38.3200041 133.635,37.492 L133.635,34.479 L131.197,34.479 L131.197,35.031 L133.037,35.031 L133.037,37.331 C132.561664,38.0363369 131.944504,38.5959979 131.1855,39.01 C130.426496,39.4240021 129.587005,39.631 128.667,39.631 C127.930996,39.631 127.244837,39.5045013 126.6085,39.2515 C125.972163,38.9984987 125.412502,38.638169 124.9295,38.1705 C124.446498,37.702831 124.067001,37.1431699 123.791,36.4915 C123.514999,35.8398301 123.377,35.1230039 123.377,34.341 C123.377,33.5589961 123.511165,32.8421699 123.7795,32.1905 C124.047835,31.5388301 124.415831,30.979169 124.8835,30.5115 C125.351169,30.043831 125.89933,29.6835013 126.528,29.4305 C127.15667,29.1774987 127.838996,29.051 128.575,29.051 C128.851001,29.051 129.111665,29.0739998 129.357,29.12 C129.602335,29.1660002 129.816999,29.2119998 130.001,29.258 C130.215668,29.3193336 130.414999,29.3806664 130.599,29.442 L130.967,28.913 Z M136.993,26.659 L146.032,26.659 L146.032,30.684 L141.892,30.684 L141.892,32.386 L145.963,32.386 L145.963,36.204 L141.892,36.204 L141.892,37.975 L146.193,37.975 L146.193,42 L136.993,42 L136.993,26.659 Z M144.491,40.16 L144.491,39.608 L139.891,39.608 L139.891,34.571 L144.261,34.571 L144.261,34.019 L139.891,34.019 L139.891,29.051 L144.491,29.051 L144.491,28.499 L139.293,28.499 L139.293,40.16 L144.491,40.16 Z M147.573,26.659 L151.621,26.659 L155.623,32.547 L159.602,26.659 L163.65,26.659 L163.65,42 L158.751,42 L158.751,36.48 L155.623,41.08 L152.472,36.48 L152.472,42 L147.573,42 L147.573,26.659 Z M150.471,40.16 L150.471,29.603 L155.623,37.101 L160.752,29.603 L160.752,40.16 L161.35,40.16 L161.35,28.499 L160.752,28.499 L155.623,36.066 L150.471,28.499 L149.873,28.499 L149.873,40.16 L150.471,40.16 Z M165.26,26.659 L174.299,26.659 L174.299,30.684 L170.159,30.684 L170.159,32.386 L174.23,32.386 L174.23,36.204 L170.159,36.204 L170.159,37.975 L174.46,37.975 L174.46,42 L165.26,42 L165.26,26.659 Z M172.758,40.16 L172.758,39.608 L168.158,39.608 L168.158,34.571 L172.528,34.571 L172.528,34.019 L168.158,34.019 L168.158,29.051 L172.758,29.051 L172.758,28.499 L167.56,28.499 L167.56,40.16 L172.758,40.16 Z M175.84,26.659 L179.865,26.659 L184.097,32.57 L184.097,26.659 L188.904,26.659 L188.904,42 L184.856,42 L180.647,36.112 L180.647,42 L175.84,42 L175.84,26.659 Z M178.577,40.16 L178.577,29.534 L186.167,40.16 L186.765,40.16 L186.765,28.499 L186.167,28.499 L186.167,39.125 L178.577,28.499 L177.979,28.499 L177.979,40.16 L178.577,40.16 Z M192.538,30.684 L189.709,30.684 L189.709,26.659 L200.427,26.659 L200.427,30.684 L197.598,30.684 L197.598,42 L192.538,42 L192.538,30.684 Z M195.367,40.16 L195.367,29.051 L198.656,29.051 L198.656,28.499 L191.48,28.499 L191.48,29.051 L194.769,29.051 L194.769,40.16 L195.367,40.16 Z" id="Management"></path>
        </g>
    </g>
</svg>